<?xml version="1.0" encoding="utf-8"?>
<!-- Generator: Adobe Illustrator 27.5.0, SVG Export Plug-In . SVG Version: 6.00 Build 0)  -->
<svg version="1.1" xmlns="http://www.w3.org/2000/svg" xmlns:xlink="http://www.w3.org/1999/xlink" x="0px" y="0px"
	 viewBox="0 0 750 500" style="enable-background:new 0 0 750 500;" xml:space="preserve">
<g id="Background_Simple">
	<g>
		<path style="fill:#92E3A9;" d="M697.69,188.523c0,0-105.497-115.31-266.604-154.564s-184.813,89.187-230.62,139.844
			c-45.807,50.657-129.213,44.979-170.103,107.132c-40.89,62.153,4.089,171.738,204.451,199.544
			c200.361,27.805,188.094-79.327,312.4-59.699C671.52,440.406,814.635,334.909,697.69,188.523z"/>
		<path style="opacity:0.7;fill:#FFFFFF;" d="M697.69,188.523c0,0-105.497-115.31-266.604-154.564s-184.813,89.187-230.62,139.844
			c-45.807,50.657-129.213,44.979-170.103,107.132c-40.89,62.153,4.089,171.738,204.451,199.544
			c200.361,27.805,188.094-79.327,312.4-59.699C671.52,440.406,814.635,334.909,697.69,188.523z"/>
	</g>
</g>
<g id="Picture_2">
	<g>
		<g>
			<g>
				<rect x="571.749" y="123.422" style="fill:#B5B5B5;stroke:#263238;stroke-miterlimit:10;" width="145.898" height="192.787"/>
				<rect x="577.927" y="131.585" style="fill:#B5B5B5;stroke:#263238;stroke-miterlimit:10;" width="133.542" height="176.461"/>
				<rect x="582.015" y="136.988" style="fill:#FFFFFF;stroke:#263238;stroke-miterlimit:10;" width="125.366" height="165.656"/>
				<path style="fill:#FFFFFF;stroke:#263238;stroke-miterlimit:10;" d="M620.537,248.586c-3.152,8.948-6.165,17.997-9.672,26.574
					c-9.459,23.114-21.194,26.972-26.292,27.49c-1.606,0.165-2.554,0-2.554,0"/>
				<path style="fill:#FFFFFF;stroke:#263238;stroke-miterlimit:10;" d="M687.917,176.488c-9.202,4.325-19.499,8.912-30.111,15.18
					c-12.757,7.535-21.026,19.074-27.402,32.262"/>
				<path style="fill:#FFFFFF;stroke:#263238;stroke-miterlimit:10;" d="M707.377,165.966c-3.717,2.563-7.921,4.879-12.495,7.165"/>
				<path style="fill:#D4D4D4;stroke:#263238;stroke-miterlimit:10;" d="M613.599,136.982c-1.06,10.092-0.112,19.962,5.745,25.455
					c15.271,14.315,27.72,10.14,57.124-13.715c5.499-4.458,11.445-8.352,17.491-11.739H613.599z"/>
				<path style="fill:#D4D4D4;stroke:#263238;stroke-miterlimit:10;" d="M582.019,183.928c7.63,4.188,14.892,10.892,16.398,21.455
					c1.695,11.928-6.648,21.173-16.398,27.807V183.928z"/>
				<path style="fill:#D4D4D4;stroke:#263238;stroke-miterlimit:10;" d="M707.377,211.688
					c-17.424,4.176-44.463,14.104-49.003,36.041c-4.105,19.809,11.188,41.134,23.938,54.921h25.068L707.377,211.688z"/>
				<ellipse style="fill:#D4D4D4;stroke:#263238;stroke-miterlimit:10;" cx="614.82" cy="188.684" rx="14.705" ry="15.507"/>
				<ellipse style="fill:#D4D4D4;stroke:#263238;stroke-miterlimit:10;" cx="643.383" cy="248.027" rx="6.504" ry="6.859"/>
				<path style="fill:#FFFFFF;stroke:#263238;stroke-miterlimit:10;" d="M690.61,236.994c0,2.964-2.279,5.368-5.09,5.368
					s-5.09-2.403-5.09-5.368c0-2.965,2.279-5.368,5.09-5.368S690.61,234.029,690.61,236.994z"/>
				<ellipse style="fill:#FFFFFF;stroke:#263238;stroke-miterlimit:10;" cx="596.439" cy="259.956" rx="3.676" ry="3.877"/>
				<path style="fill:#FFFFFF;stroke:#263238;stroke-miterlimit:10;" d="M658.371,147.531c0,1.976-1.519,3.578-3.393,3.578
					c-1.874,0-3.394-1.602-3.394-3.578c0-1.976,1.519-3.579,3.394-3.579C656.852,143.952,658.371,145.555,658.371,147.531z"/>
			</g>
			<line style="fill:none;stroke:#263238;stroke-miterlimit:10;" x1="571.749" y1="123.422" x2="582.015" y2="136.988"/>
			<line style="fill:none;stroke:#263238;stroke-miterlimit:10;" x1="717.647" y1="123.422" x2="707.38" y2="136.988"/>
			<line style="fill:none;stroke:#263238;stroke-miterlimit:10;" x1="707.38" y1="302.644" x2="717.647" y2="316.209"/>
			<line style="fill:none;stroke:#263238;stroke-miterlimit:10;" x1="571.749" y1="316.209" x2="582.015" y2="302.644"/>
		</g>
		<g>
			<polygon style="fill:#D4D4D4;stroke:#263238;stroke-miterlimit:10;" points="596.535,409.211 616.518,324.636 602.005,324.136 
				582.944,409.211 			"/>
			<polygon style="fill:#D4D4D4;stroke:#263238;stroke-miterlimit:10;" points="703.138,409.211 684.077,324.136 669.564,324.636 
				689.546,409.211 			"/>
			<rect x="559.802" y="316.103" style="fill:#D4D4D4;stroke:#263238;stroke-miterlimit:10;" width="162.904" height="11.057"/>
		</g>
		<rect x="634.533" y="99.364" style="fill:#D4D4D4;stroke:#263238;stroke-miterlimit:10;" width="19.517" height="24.021"/>
	</g>
</g>
<g id="Pictures_1">
	<g>
		
			<rect x="100.212" y="106.017" style="fill:none;stroke:#263238;stroke-linecap:round;stroke-linejoin:round;stroke-miterlimit:10;" width="61.617" height="79.222"/>
		
			<rect x="104.19" y="111.131" style="fill:none;stroke:#263238;stroke-linecap:round;stroke-linejoin:round;stroke-miterlimit:10;" width="53.661" height="68.992"/>
		
			<rect x="122.36" y="134.492" style="fill:none;stroke:#263238;stroke-linecap:round;stroke-linejoin:round;stroke-miterlimit:10;" width="17.322" height="22.271"/>
	</g>
	<g>
		
			<rect x="179.034" y="165.233" style="fill:none;stroke:#263238;stroke-linecap:round;stroke-linejoin:round;stroke-miterlimit:10;" width="61.617" height="79.222"/>
		
			<rect x="183.012" y="170.348" style="fill:none;stroke:#263238;stroke-linecap:round;stroke-linejoin:round;stroke-miterlimit:10;" width="53.661" height="68.992"/>
		
			<rect x="201.182" y="193.708" style="fill:none;stroke:#263238;stroke-linecap:round;stroke-linejoin:round;stroke-miterlimit:10;" width="17.322" height="22.271"/>
	</g>
	<g>
		
			<rect x="100.212" y="197.71" style="fill:none;stroke:#263238;stroke-linecap:round;stroke-linejoin:round;stroke-miterlimit:10;" width="61.617" height="46.278"/>
		
			<rect x="104.19" y="200.697" style="fill:none;stroke:#263238;stroke-linecap:round;stroke-linejoin:round;stroke-miterlimit:10;" width="53.661" height="40.302"/>
		
			<rect x="122.36" y="214.344" style="fill:none;stroke:#263238;stroke-linecap:round;stroke-linejoin:round;stroke-miterlimit:10;" width="17.322" height="13.01"/>
	</g>
</g>
<g id="Lamps">
	<g>
		<line style="fill:none;stroke:#263238;stroke-miterlimit:10;" x1="566.887" y1="46.559" x2="566.887" y2="15.244"/>
		<rect x="559.058" y="41.34" style="fill:#B5B5B5;stroke:#263238;stroke-miterlimit:10;" width="15.657" height="7.456"/>
		
			<ellipse transform="matrix(0.9677 -0.2522 0.2522 0.9677 -0.7638 145.3144)" style="fill:#FFFFFF;stroke:#263238;stroke-miterlimit:10;" cx="566.514" cy="75.637" rx="11.184" ry="11.184"/>
		<path style="fill:#D4D4D4;stroke:#263238;stroke-miterlimit:10;" d="M614.125,79.365c-5.494-18.877-24.558-32.806-47.238-32.806
			c-22.68,0-41.745,13.928-47.238,32.806H614.125z"/>
	</g>
	<g>
		<line style="fill:none;stroke:#263238;stroke-miterlimit:10;" x1="142.649" y1="46.559" x2="142.649" y2="15.244"/>
		<rect x="134.821" y="41.34" style="fill:#B5B5B5;stroke:#263238;stroke-miterlimit:10;" width="15.657" height="7.456"/>
		
			<ellipse transform="matrix(0.8023 -0.5969 0.5969 0.8023 -17.0208 99.8832)" style="fill:#FFFFFF;stroke:#263238;stroke-miterlimit:10;" cx="142.276" cy="75.637" rx="11.184" ry="11.184"/>
		<path style="fill:#D4D4D4;stroke:#263238;stroke-miterlimit:10;" d="M189.888,79.365c-5.494-18.877-24.558-32.806-47.238-32.806
			c-22.68,0-41.745,13.928-47.238,32.806H189.888z"/>
	</g>
</g>
<g id="Plant">
	<g>
		<g>
			<g>
				<path style="fill:#263238;" d="M484.172,396.61c0.034,0.759,0.088,1.517,0.14,2.275c0.115,1.515,0.207,3.031,0.346,4.542
					c0.179,1.866,0.425,3.726,0.693,5.58h0.602c-0.011-0.373-0.023-0.747-0.031-1.12c-0.044-1.511-0.175-3.015-0.154-4.526
					c0.007-1.511-0.033-3.017-0.049-4.524l-0.042-2.259l0.04-2.259l0.02-4.517l0.122-4.514l0.047-2.259
					c0.029-0.753,0.085-1.503,0.127-2.255l0.277-4.512c0.528-6.004,1.353-11.986,2.556-17.898c1.2-5.907,2.684-11.79,4.888-17.415
					l0.002-0.005c0.015-0.04-0.003-0.085-0.043-0.102c-0.04-0.018-0.087,0.001-0.105,0.042c-2.411,5.568-4.107,11.414-5.522,17.31
					c-1.366,5.912-2.355,11.91-3.047,17.945l-0.432,4.536c-0.067,0.756-0.149,1.512-0.203,2.27l-0.124,2.276
					c-0.066,1.518-0.159,3.036-0.202,4.554l0.041,4.559L484.172,396.61z"/>
				<path style="fill:#263238;" d="M489.094,409.007c0.305-3.096,0.527-6.188,0.741-9.278c0.28-3.944,0.318-7.9,0.575-11.845
					c0.238-3.934,0.732-7.851,1.409-11.743c0.663-3.893,1.491-7.771,2.583-11.574c0.012-0.041-0.01-0.086-0.05-0.1
					c-0.042-0.014-0.087,0.008-0.101,0.049c-1.3,3.753-2.338,7.592-3.215,11.471c-0.839,3.886-1.497,7.823-1.898,11.79
					c-0.401,3.952-0.843,7.909-0.897,11.884c-0.048,3.115-0.012,6.232,0.205,9.346H489.094z"/>
				<path style="fill:#263238;" d="M492.256,409.007l0.57-6.583c0.398-3.807,0.641-7.636,1.459-11.354
					c0.104-0.463,0.237-0.916,0.354-1.375c0.119-0.459,0.234-0.919,0.404-1.356l0.467-1.331l0.602-1.257
					c0.887-1.664,1.971-3.255,3.137-4.763c2.338-3.018,5.089-5.768,8.221-8.002l0.004-0.003c0.034-0.024,0.044-0.072,0.021-0.107
					c-0.023-0.037-0.073-0.048-0.11-0.025c-3.277,2.075-6.201,4.689-8.755,7.633c-1.256,1.495-2.423,3.059-3.423,4.76l-0.703,1.328
					l-0.551,1.379c-0.198,0.457-0.337,0.928-0.48,1.398c-0.142,0.471-0.3,0.939-0.427,1.413c-0.983,3.795-1.635,7.662-1.811,11.55
					c-0.091,2.233-0.091,4.467,0.012,6.696H492.256z"/>
				<path style="fill:#263238;" d="M493.98,409.007h0.773c0.076-0.45,0.145-0.9,0.204-1.348c0.162-1.014,0.319-2.021,0.441-3.029
					c0.148-1.004,0.281-2.005,0.359-3.017c0.14-0.998,0.214-2.018,0.433-3.005c0.35-1.996,0.927-3.945,1.707-5.809
					c0.777-1.848,1.788-3.69,3.343-4.993l0.012-0.01c0.03-0.025,0.038-0.07,0.016-0.104c-0.024-0.037-0.073-0.047-0.109-0.024
					c-1.785,1.152-2.978,2.964-3.981,4.786c-0.957,1.863-1.71,3.838-2.231,5.864c-0.157,0.502-0.28,1.01-0.389,1.521l-0.361,1.531
					c-0.184,1.028-0.328,2.067-0.387,3.11c-0.014,1.045-0.043,2.088,0.027,3.13C493.875,408.077,493.924,408.543,493.98,409.007z"/>
				<path style="fill:#263238;" d="M479.461,384.153c0.625,5.072,1.112,10.156,1.747,15.218l1.184,9.636h0.915
					c-0.018-0.707-0.04-1.414-0.053-2.122c-0.047-2.569-0.266-5.124-0.459-7.681c-0.431-5.112-1.274-10.173-2.071-15.232
					c-0.799-5.059-1.68-10.103-2.606-15.137c-0.958-5.029-1.96-10.048-3.044-15.049c-0.009-0.041-0.05-0.069-0.092-0.062
					c-0.044,0.008-0.072,0.049-0.064,0.093c0.875,5.039,1.666,10.093,2.414,15.151C478.099,374.023,478.821,379.084,479.461,384.153
					z"/>
				<path style="fill:#263238;" d="M470.158,370.25c0.445,0.909,0.914,1.802,1.294,2.741l0.6,1.391l0.532,1.42
					c1.416,3.784,2.552,7.674,3.406,11.629c0.466,1.967,0.775,3.971,1.156,5.954l0.479,2.996c0.173,0.996,0.387,1.985,0.527,2.988
					c0.319,1.999,0.686,3.992,1.035,5.992c0.188,1.216,0.404,2.431,0.633,3.646h0.603c-0.021-1.259-0.056-2.518-0.121-3.776
					c-0.119-2.039-0.36-4.068-0.572-6.101c-0.273-2.025-0.646-4.038-1.032-6.044l-0.718-2.985c-0.235-0.995-0.458-1.992-0.749-2.974
					c-1.02-3.96-2.324-7.853-3.907-11.625l-0.613-1.407l-0.681-1.376c-0.433-0.927-0.957-1.81-1.454-2.703
					c-1.069-1.741-2.178-3.481-3.69-4.892c-0.031-0.029-0.079-0.029-0.11,0.001c-0.031,0.03-0.032,0.081-0.002,0.113l0.008,0.008
					C468.18,366.695,469.198,368.483,470.158,370.25z"/>
				<path style="fill:#263238;" d="M474.286,399.789c0.799,2.692,1.372,5.437,2.089,8.141c0.1,0.358,0.193,0.718,0.288,1.077h1.516
					c-0.078-0.478-0.153-0.957-0.248-1.432c-0.501-2.812-1.49-5.504-2.431-8.184c-0.947-2.682-2.043-5.308-3.237-7.882
					c-1.225-2.561-2.548-5.072-4.072-7.464c-0.023-0.034-0.072-0.047-0.108-0.026c-0.038,0.022-0.051,0.071-0.028,0.109
					c1.33,2.484,2.456,5.076,3.475,7.697C472.568,394.441,473.503,397.094,474.286,399.789z"/>
				<path style="fill:#263238;" d="M465.309,397.051c1.532,0.681,2.826,1.81,3.92,3.045c1.109,1.237,1.993,2.657,2.731,4.135
					c0.775,1.468,1.176,3.091,1.851,4.604c0.022,0.057,0.045,0.115,0.067,0.172h1.599c-0.051-0.227-0.098-0.455-0.153-0.682
					c-0.485-1.68-1.311-3.244-2.25-4.719c-0.922-1.482-1.992-2.883-3.275-4.07c-0.661-0.572-1.336-1.123-2.084-1.571
					c-0.736-0.46-1.516-0.848-2.363-1.068c-0.037-0.01-0.077,0.009-0.093,0.044c-0.018,0.04,0,0.087,0.04,0.105L465.309,397.051z"/>
			</g>
			<path style="fill:#92E3A9;" d="M475.64,361.105c0,0-8.377-1.933-10.31-10.954c-1.933-9.021,4.296-5.155-1.289-19.331
				c-5.585-14.176-4.296-17.398-2.363-21.478c1.933-4.081,3.007-2.792,4.725,2.578c1.718,5.369,7.947,13.746,10.31,29.426
				C479.077,357.024,475.64,361.105,475.64,361.105z"/>
			<path style="fill:#92E3A9;" d="M492.179,345.855c0,0-5.585-1.933-5.799-12.458c-0.215-10.524,4.081-8.376,4.725-21.478
				c0.644-13.102,1.503-22.338,3.866-22.552c2.363-0.215,8.591,6.444,10.739,21.049c2.148,14.605-2.792,24.27-7.088,28.566
				C494.326,343.278,492.179,345.855,492.179,345.855z"/>
			<path style="fill:#92E3A9;" d="M472.633,373.777c0,0-1.289-7.732-3.866-11.383c-2.577-3.652-8.162-6.873-11.813-13.961
				c-3.651-7.088-7.732-10.524-7.518-0.43c0.215,10.095,4.725,15.25,10.31,18.686C465.331,370.126,472.633,373.777,472.633,373.777z
				"/>
			<path style="fill:#92E3A9;" d="M470.271,387.094c0,0-5.155-9.88-12.672-17.183c-7.517-7.303-13.531-10.954-11.384-7.303
				c2.148,3.651,4.725,3.437,8.377,9.88c3.651,6.444,2.577,11.169,7.732,14.82C467.478,390.96,470.271,387.094,470.271,387.094z"/>
			<path style="fill:#92E3A9;" d="M469.626,399.766c-0.215-0.644-0.429-5.37-7.732-9.236c-7.303-3.866-14.176-2.363-13.317-0.43
				c0.859,1.933,5.37,5.155,9.88,7.088C462.968,399.122,469.626,399.766,469.626,399.766z"/>
			<path style="fill:#92E3A9;" d="M491.749,374.207c0,0-3.222-4.081-1.504-12.672c1.718-8.591,5.584-6.444,9.88-10.954
				c4.296-4.51,3.436-5.155,7.732-9.88c4.296-4.725,8.162-7.303,9.88-5.37c1.718,1.933-0.859,7.947-3.437,11.384
				c-2.577,3.437-6.658,5.155-8.591,9.451c-1.933,4.296-1.074,11.169-6.014,14.391S491.749,374.207,491.749,374.207z"/>
			<path style="fill:#92E3A9;" d="M502.488,376.57c0,0,7.732-8.806,13.317-15.25c5.584-6.444,7.732-11.384,7.947-7.088
				c0.215,4.296,1.933,7.732-2.578,13.317C516.664,373.133,502.488,376.57,502.488,376.57z"/>
			<path style="fill:#92E3A9;" d="M498.407,390.745c0,0-0.215-3.437,12.028-11.384c12.243-7.947,17.398-9.45,16.109-6.228
				c-1.289,3.222-6.658,6.443-12.457,12.242C508.288,391.175,498.407,390.745,498.407,390.745z"/>
			<path style="fill:none;stroke:#263238;stroke-linecap:round;stroke-linejoin:round;stroke-miterlimit:10;" d="M476.151,360.19
				c0,0-2.874-15.408-5.881-26.363c-3.007-10.954-4.94-17.612-4.94-17.612"/>
			<path style="fill:none;stroke:#263238;stroke-linecap:round;stroke-linejoin:round;stroke-miterlimit:10;" d="M491.684,346.017
				c0,0,5.22-16.701,6.938-26.795c1.718-10.095-0.215-17.612-1.074-22.123"/>
			<path style="fill:none;stroke:#263238;stroke-linecap:round;stroke-linejoin:round;stroke-miterlimit:10;" d="M471.956,373.455
				c0,0-3.189-5.691-7.914-11.276c-4.725-5.585-8.377-8.591-10.525-13.961"/>
			<path style="fill:none;stroke:#263238;stroke-linecap:round;stroke-linejoin:round;stroke-miterlimit:10;" d="M491.749,374.207
				c0,0,1.718-10.31,5.799-15.679c4.081-5.369,12.243-13.746,15.465-19.116"/>
			<path style="fill:none;stroke:#263238;stroke-linecap:round;stroke-linejoin:round;stroke-miterlimit:10;" d="M469.122,399.532
				c0,0-7.228-4.706-12.382-7.283"/>
		</g>
	</g>
</g>
<g id="Speech_Bubble">
	<g>
		<path style="fill:#263238;" d="M506.949,176.565c0-16.018-17.721-29.004-39.581-29.004c-21.86,0-39.581,12.985-39.581,29.004
			s17.721,29.003,39.581,29.003c5.403,0,10.551-0.796,15.242-2.232l15.467,9.739l-5.454-14.18
			C501.375,193.576,506.949,185.548,506.949,176.565z"/>
		<g>
			<path style="fill:#FFFFFF;" d="M457.227,176.272c0-1.911-1.549-3.46-3.46-3.46c-1.911,0-3.46,1.549-3.46,3.46
				c0,1.911,1.549,3.46,3.46,3.46C455.678,179.732,457.227,178.183,457.227,176.272z"/>
			<path style="fill:#FFFFFF;" d="M471.169,176.272c0-1.911-1.549-3.46-3.46-3.46s-3.46,1.549-3.46,3.46
				c0,1.911,1.549,3.46,3.46,3.46S471.169,178.183,471.169,176.272z"/>
			<path style="fill:#FFFFFF;" d="M485.111,176.272c0-1.911-1.549-3.46-3.46-3.46s-3.46,1.549-3.46,3.46
				c0,1.911,1.549,3.46,3.46,3.46S485.111,178.183,485.111,176.272z"/>
		</g>
	</g>
</g>
<g id="Character_1">
	<g>
		<path style="fill:#263238;stroke:#263238;stroke-miterlimit:10;" d="M100.96,357.711H71.481c-2.894,0-5.074,2.631-4.537,5.475
			l8.65,45.772h38.877l-8.974-47.487C105.085,359.29,103.179,357.711,100.96,357.711z"/>
		<polygon style="fill:#FFFFFF;stroke:#263238;stroke-miterlimit:10;" points="135.075,371.159 147.44,408.894 140.512,408.894 
			132.813,379.894 		"/>
		<polygon style="fill:#92E3A9;stroke:#263238;stroke-miterlimit:10;" points="135.075,371.159 132.813,379.894 136.363,393.267 
			136.796,393.221 141.741,391.501 		"/>
		<g>
			<path style="fill:#92E3A9;stroke:#263238;stroke-miterlimit:10;" d="M98.054,326.962c0,0-11.424,1.923-14.729,3.846
				c-3.305,1.923-18.353,15.459-18.353,15.459s-10.636,10.535-12.096,13.954c-1.46,3.419,5.835,9.998,8.995,10.853
				c3.16,0.855,15.929-3.943,15.929-3.943l7.118,18.588l-3.991,23.289h62.422l-7.99-31.194c0,0,1.108-8.974,0.815-11.538
				c-0.294-2.564-3.966-14.102-4.146-14.743c-0.18-0.641-1.358-13.539-4.329-18.026c-2.971-4.487-20.785-8.468-20.785-8.468
				L98.054,326.962z"/>
			<line style="fill:none;stroke:#263238;stroke-miterlimit:10;" x1="77.8" y1="367.13" x2="85.735" y2="364.355"/>
			<line style="fill:none;stroke:#263238;stroke-miterlimit:10;" x1="124.638" y1="376.5" x2="107.306" y2="391.745"/>
			<line style="fill:none;stroke:#263238;stroke-miterlimit:10;" x1="108.119" y1="386.06" x2="101.581" y2="392.52"/>
		</g>
		<path style="fill:#FFFFFF;stroke:#263238;stroke-miterlimit:10;" d="M59.396,289.753c0,0,0.875-4.487,1.852-6.837
			c0.977-2.35,1.166-5.983,2.168-4.701c1.002,1.282,1.329,3.205,1.218,5.341c-0.111,2.137-0.919,5.341-0.919,5.341L59.396,289.753z"
			/>
		<g>
			<polygon style="fill:#FFFFFF;stroke:#263238;stroke-miterlimit:10;" points="66.061,303.639 63.688,303.639 65.542,268.042 
				67.915,268.042 			"/>
			
				<ellipse transform="matrix(0.0967 -0.9953 0.9953 0.0967 -183.9542 288.848)" style="fill:#92E3A9;stroke:#263238;stroke-miterlimit:10;" cx="67.158" cy="245.77" rx="24.524" ry="16.661"/>
			<g>
				<path style="fill:#263238;" d="M67.81,259.207c-1.455-0.081-2.619-0.515-3.492-1.305c-0.873-0.787-1.488-1.823-1.844-3.104
					c-0.356-1.281-0.491-2.691-0.405-4.229l0.474-8.51c0.091-1.642,0.361-3.128,0.811-4.458c0.449-1.329,1.148-2.375,2.097-3.135
					c0.949-0.76,2.213-1.097,3.793-1.009c1.31,0.073,2.403,0.374,3.28,0.902c0.878,0.528,1.534,1.263,1.972,2.205
					c0.437,0.941,0.63,2.067,0.578,3.377c-0.002,0.042-0.001,0.1,0.006,0.173c0.006,0.074,0.008,0.141,0.004,0.203l-3.366-0.187
					c0.068-1.226-0.078-2.173-0.437-2.838c-0.359-0.666-1.089-1.031-2.191-1.091c-0.603-0.033-1.132,0.129-1.59,0.489
					c-0.458,0.361-0.818,0.93-1.08,1.707c-0.262,0.778-0.428,1.79-0.497,3.037l-0.213,3.834c0.361-0.5,0.858-0.895,1.489-1.184
					c0.63-0.288,1.393-0.407,2.287-0.357c1.392,0.078,2.466,0.439,3.222,1.086c0.756,0.647,1.271,1.525,1.542,2.635
					c0.271,1.109,0.367,2.402,0.284,3.877c-0.084,1.518-0.369,2.888-0.854,4.111c-0.486,1.224-1.205,2.18-2.161,2.867
					C70.563,258.99,69.327,259.291,67.81,259.207z M67.965,256.433c0.749,0.042,1.342-0.14,1.781-0.542
					c0.44-0.402,0.767-0.953,0.984-1.649c0.215-0.696,0.347-1.46,0.393-2.292c0.056-0.997,0.061-1.925,0.014-2.783
					c-0.046-0.856-0.253-1.551-0.619-2.082c-0.366-0.531-1.028-0.823-1.984-0.876c-0.457-0.025-0.878,0.034-1.26,0.18
					c-0.384,0.146-0.718,0.341-1.002,0.585c-0.285,0.245-0.519,0.508-0.701,0.79l-0.21,3.772c-0.048,0.852-0.003,1.646,0.133,2.383
					c0.136,0.737,0.4,1.33,0.793,1.779C66.678,256.147,67.238,256.392,67.965,256.433z"/>
			</g>
		</g>
		<path style="fill:#FFFFFF;stroke:#263238;stroke-miterlimit:10;" d="M66.525,308.769c0,0,5.099,49.783,4.335,52.133
			c-0.763,2.35-6.719,11.153-10.601,11.346c-5.181,0.258-7.783-7.073-8.718-9.637c-0.935-2.564,5.998-53.629,5.998-53.629
			l0.307-14.102c0,0,1.066-4.06,1.549-5.128c0.483-1.068,7.834-6.837,8.508-7.478c0.674-0.641,2.755,0.427,3.105,1.923
			c0.349,1.496-1.707,4.059-1.707,4.059s2.063,9.615,1.738,11.751C70.716,302.145,66.525,308.769,66.525,308.769z"/>
		<path style="fill:#92E3A9;stroke:#263238;stroke-miterlimit:10;" d="M69.236,336.758l-15.464,1.498
			c-1.444,11.911-2.657,23.185-2.23,24.355c0.935,2.564,3.536,9.895,8.718,9.637c3.881-0.194,9.837-8.996,10.601-11.346
			C71.214,359.813,70.309,348.542,69.236,336.758z"/>
		<g>
			<g>
				<path style="fill:#FFFFFF;stroke:#263238;stroke-miterlimit:10;" d="M124.318,278.034c0,0,3.523,6.196,3.537,10.042
					c0.013,3.846-0.514,5.769-0.378,7.264c0.136,1.496,4.4,5.769,4.558,6.837c0.158,1.068-3.844,4.06-3.844,4.06
					s-3.256,9.187-4.469,11.965c-1.213,2.778-5.464,2.35-9.276,1.709c0,0,0.592,13.247,0.897,15.597
					c0.305,2.35,0.376,9.187,0.376,9.187s-5.735-0.641-10.788-6.196c-5.052-5.555-8.046-9.615-8.046-9.615s0.512-9.828,0.229-12.606
					c-0.283-2.778-6.069-14.743-9.332-17.734c-3.263-2.991,1.803-14.102,11.796-21.366
					C109.571,269.915,124.318,278.034,124.318,278.034z"/>
				<polygon style="fill:#263238;stroke:#263238;stroke-miterlimit:10;" points="114.445,319.911 108.383,318.783 114.422,328.02 
									"/>
				<path style="fill:#263238;stroke:#263238;stroke-miterlimit:10;" d="M127.973,277.607c0,0-1.798,1.709-4.956,4.914
					c-3.158,3.205-8.947,7.692-9.768,7.051c-0.821-0.641,0.392-3.418,0.392-3.418s-2.731,3.205-4.732,4.701
					c-2.001,1.496-5.925,2.991-5.564,4.273c0.361,1.282,2.025,2.137,0.912,2.991c-1.113,0.855-2.844,1.282-4.329,1.068
					c-1.484-0.214-2.562,4.059-1.752,4.914c0.81,0.855,2.306,0.855,1.689,4.487c-0.617,3.632,0.004,8.119-2.751,7.692
					c-2.755-0.427-6.468-2.991-7.796-6.196s-1.858-5.342-1.858-5.342s-5.497,2.991-8.066-5.128
					c-2.568-8.119,1.676-19.87,9.477-26.066c7.801-6.196,17.907-11.538,33.035-6.624
					C137.033,271.838,127.973,277.607,127.973,277.607z"/>
				<path style="fill:#263238;" d="M124.61,297.05c-0.068,1.298-0.649,2.35-1.298,2.35c-0.649,0-1.12-1.052-1.053-2.35
					c0.068-1.298,0.649-2.35,1.298-2.35C124.206,294.699,124.677,295.752,124.61,297.05z"/>
				<path style="fill:none;stroke:#263238;stroke-miterlimit:10;" d="M124.222,308.587c0,0-3.272,1.282-5.219-2.35"/>
				<path style="fill:none;stroke:#263238;stroke-miterlimit:10;" d="M121.167,293.418c0,0,1.854-2.778,4.767-1.282"/>
			</g>
			<path style="fill:#FFFFFF;stroke:#263238;stroke-miterlimit:10;" d="M101.334,300.896c0,0-2.871-6.41-5.749-4.487
				c-2.878,1.923-0.445,8.546,1.827,10.042c2.272,1.496,5.735,0.641,5.735,0.641"/>
		</g>
	</g>
</g>
<g id="Character_2">
	<path style="fill:#263238;stroke:#263238;stroke-miterlimit:10;" d="M176.986,357.711h-29.479c-2.894,0-5.074,2.631-4.537,5.475
		l8.65,45.772h38.877l-8.974-47.487C181.111,359.29,179.206,357.711,176.986,357.711z"/>
	<g>
		<g>
			<g>
				<path style="fill:#919191;stroke:#263238;stroke-miterlimit:10;" d="M178.028,322.657c0,0-27.694,17.255-29.837,24.119
					c-2.142,6.863,1.464,62.232,1.464,62.232h80.039c0,0-15.583-59.608-19.491-66.192c-3.908-6.583-7.823-11.725-12.854-14.776
					C192.319,324.99,178.028,322.657,178.028,322.657z"/>
				<path style="fill:none;stroke:#263238;stroke-miterlimit:10;" d="M175.728,341.804c4.007,9.69,6.189,14.773,6.189,14.773
					l7.28-2.148l-3.471,5.625c0,0,2.222,2.434,8.431,6.15c6.209,3.717,14.877,10.997,14.877,10.997l1.25-15.357"/>
				<path style="fill:none;stroke:#263238;stroke-miterlimit:10;" d="M171.615,332.159c0,0,0.089-0.038,3.216,7.483"/>
				<line style="fill:none;stroke:#263238;stroke-miterlimit:10;" x1="213.79" y1="391.064" x2="217.053" y2="399.984"/>
				<line style="fill:none;stroke:#263238;stroke-miterlimit:10;" x1="209.965" y1="380.612" x2="211.959" y2="386.06"/>
				<path style="fill:none;stroke:#263238;stroke-miterlimit:10;" d="M171.993,364.46c0.19,1.345,0.302,2.215,0.302,2.215
					l4.418,38.591"/>
				<path style="fill:none;stroke:#263238;stroke-miterlimit:10;" d="M158.764,341.197c0,0,10.338,7.687,11.429,12.661
					c0.571,2.604,1.12,5.993,1.514,8.632"/>
			</g>
			<path style="fill:#FFFFFF;stroke:#263238;stroke-miterlimit:10;" d="M178.028,322.657c0,0-1.2,1.27-3.089,3.327
				c1.902,2.781,7.017,9.922,10.668,15.259c4.384,6.41,21.292,30.984,21.292,30.984s0.608-26.805-1.772-35.669
				c-0.146-0.545-0.311-1.073-0.491-1.585c-2.313-2.717-4.544-5.271-7.285-6.933C192.319,324.99,178.028,322.657,178.028,322.657z"
				/>
			<path style="fill:#263238;stroke:#263238;stroke-miterlimit:10;" d="M206.68,360.502l-1.967-2.147l1.733-8.409l-8.227-3.401
				l-2.669,8.553l5.99,3.603l-1.863,2.466c3.743,6.42,7.222,11.059,7.222,11.059S206.829,369.182,206.68,360.502z"/>
			<path style="fill:#FFFFFF;stroke:#263238;stroke-miterlimit:10;" d="M206.445,349.946c-0.219-2.546-0.853-11.653-1.319-13.388
				c-0.146-0.545-0.311-1.073-0.491-1.585c-2.313-2.717-4.544-5.271-7.285-6.933c-5.031-3.05-19.322-5.383-19.322-5.383
				s-2.317,0.631-4.206,2.687c1.902,2.781,8.135,10.562,11.785,15.899c1.157,1.692,7.653,10.409,9.94,13.466l2.672-8.164
				L206.445,349.946z"/>
		</g>
		<g>
			<path style="fill:#FFFFFF;stroke:#263238;stroke-miterlimit:10;" d="M182.482,276.777c0,0-11.427,8.78-14.145,17.507
				c-2.717,8.727,3.808,19.46,6.386,21.736c2.578,2.276,3.323,4.564,3.323,4.564l-0.894,2.756l21.067,23.205l3.996-18.316
				c0,0,7.266,0.872,9.22-0.744c1.954-1.617,2.671-5.059,2.986-6.207c0.315-1.148,2.207-8.036,2.207-8.036s2.957-2.769,3.29-4.146
				c0.333-1.377-3.844-9.833-3.844-9.833s3.078-4.374,2.511-5.975c-0.567-1.601-4.268-10.289-6.387-12.568
				c-2.12-2.279-3.655-3.187-3.655-3.187s-1.398-2.742-5.208-3.865C199.524,272.546,187.13,272.851,182.482,276.777z"/>
			<path style="fill:#263238;stroke:#263238;stroke-miterlimit:10;" d="M203.334,273.669c-3.81-1.123-16.205-0.818-20.853,3.108
				c0,0-11.427,8.78-14.145,17.507c-2.717,8.727,3.808,19.46,6.386,21.736c2.578,2.276,3.323,4.564,3.323,4.564
				c1.306,0.909,7.513-6.26,7.513-6.26s-1.999-1.338-3.941-3.427c-2.458-2.643-0.354-7.933,2.465-8.867
				c2.819-0.934,2.468,2.915,3.494,4.513c1.025,1.598,4.091,0.433,5.73-0.035c1.639-0.469,0.436-2.753,0.379-5.045
				c-0.057-2.292,2.774-6.435,3.95-9.881c1.175-3.445-3.518-5.021-8.193-6.826c-4.676-1.805-0.813-1.37,5.141-4.387
				c5.954-3.016,13.959-2.836,13.959-2.836S207.145,274.792,203.334,273.669z"/>
			<path style="fill:none;stroke:#263238;stroke-miterlimit:10;" d="M217.341,297.651c0,0-8.905-0.404-10.137,0.75
				c-1.232,1.154-0.465,6.192,1.477,7.784c1.942,1.593,3.81,1.123,5.713,0.194C216.297,305.451,217.341,297.651,217.341,297.651z"/>
			<path style="fill:none;stroke:#263238;stroke-miterlimit:10;" d="M217.341,297.651c0,0,2.874-0.443,3.671,0.075
				c0.797,0.518-1.276,5.861-2.136,6.18c-0.86,0.319-1.816-3.647-1.816-3.647L217.341,297.651z"/>
			<line style="fill:none;stroke:#263238;stroke-miterlimit:10;" x1="207.204" y1="298.401" x2="186.094" y2="303.219"/>
			<path style="fill:none;stroke:#263238;stroke-miterlimit:10;" d="M215.117,296.139c0,0-1.133-0.893-3.556-0.578
				c-2.423,0.315-3.991,1.225-3.991,1.225"/>
			<path style="fill:none;stroke:#263238;stroke-miterlimit:10;" d="M212.485,315.209c0,0-2.862,0.168-4.77-2.371"/>
			<path style="fill:#263238;" d="M212.577,302.006c-0.075,0.995-0.639,1.804-1.26,1.808c-0.621,0.004-1.065-0.799-0.99-1.794
				c0.075-0.995,0.639-1.804,1.26-1.808C212.209,300.208,212.652,301.011,212.577,302.006z"/>
			<polygon style="fill:#263238;stroke:#263238;stroke-miterlimit:10;" points="202.215,328.229 195.898,326.414 199.967,338.268 
							"/>
		</g>
	</g>
</g>
<g id="Character_3">
	<g>
		<path style="fill:#263238;stroke:#263238;stroke-miterlimit:10;" d="M257.097,357.711h-29.479c-2.894,0-5.074,2.631-4.537,5.475
			l8.65,45.772h38.877l-8.974-47.487C261.222,359.29,259.316,357.711,257.097,357.711z"/>
		<path style="fill:#FFFFFF;stroke:#263238;stroke-miterlimit:10;" d="M322.444,321.059c0,0-0.009-13.464,1.03-16.223
			c1.039-2.759,8.872-10.484,10.129-11.257c1.258-0.773,3.907-0.773,4.248,0.993c0.341,1.766,1.058,18.32,0.198,19.865
			s-2.978,3.863-3.542,4.083c-0.564,0.221-0.919,4.525-0.919,4.525L322.444,321.059z"/>
		<g>
			<polygon style="fill:#FFFFFF;stroke:#263238;stroke-miterlimit:10;" points="335.097,311.837 332.724,311.837 334.742,276.239 
				337.115,276.239 			"/>
			
				<ellipse transform="matrix(0.1051 -0.9945 0.9945 0.1051 48.5435 561.8786)" style="fill:#92E3A9;stroke:#263238;stroke-miterlimit:10;" cx="336.461" cy="253.968" rx="24.535" ry="16.654"/>
			<g>
				<path style="fill:#263238;" d="M336.121,266.223c-1.369-0.117-2.487-0.475-3.355-1.071c-0.868-0.597-1.488-1.402-1.86-2.416
					c-0.372-1.014-0.502-2.184-0.388-3.512l0.072-0.84l3.297,0.283c-0.007,0.083-0.015,0.172-0.023,0.265
					c-0.008,0.093-0.017,0.192-0.025,0.295c-0.044,0.749-0.013,1.43,0.091,2.045c0.103,0.615,0.343,1.116,0.717,1.503
					c0.374,0.387,0.944,0.614,1.712,0.68c0.808,0.07,1.437-0.07,1.885-0.418c0.447-0.348,0.774-0.869,0.98-1.561
					c0.206-0.693,0.348-1.495,0.426-2.408c0.114-1.327-0.037-2.432-0.452-3.314c-0.415-0.882-1.231-1.417-2.448-1.605
					c-0.06-0.025-0.137-0.043-0.23-0.051c-0.093-0.007-0.171-0.015-0.233-0.02l0.286-3.328c0.062,0.006,0.135,0.012,0.218,0.019
					c0.082,0.007,0.156,0.014,0.217,0.019c1.186,0.06,2.063-0.178,2.631-0.715c0.568-0.535,0.911-1.477,1.027-2.825
					c0.098-1.141-0.016-2.07-0.34-2.786c-0.326-0.718-1.058-1.125-2.198-1.223c-1.141-0.098-1.93,0.215-2.368,0.94
					c-0.438,0.725-0.729,1.676-0.871,2.855c-0.007,0.083-0.015,0.171-0.023,0.264c-0.008,0.094-0.015,0.182-0.023,0.265
					l-3.297-0.283l0.072-0.84c0.116-1.348,0.443-2.48,0.98-3.394c0.538-0.915,1.291-1.592,2.258-2.032
					c0.967-0.438,2.135-0.599,3.504-0.482c1.389,0.119,2.518,0.477,3.386,1.074c0.868,0.597,1.489,1.397,1.862,2.4
					c0.373,1.003,0.502,2.179,0.387,3.527c-0.13,1.514-0.56,2.699-1.292,3.555c-0.731,0.857-1.661,1.404-2.789,1.641
					c0.748,0.294,1.362,0.743,1.843,1.348c0.48,0.607,0.829,1.352,1.046,2.237c0.216,0.885,0.275,1.899,0.178,3.04
					c-0.128,1.493-0.447,2.776-0.957,3.85c-0.511,1.074-1.247,1.878-2.212,2.411C338.844,266.149,337.614,266.352,336.121,266.223z"
					/>
			</g>
		</g>
		<path style="fill:#FFFFFF;stroke:#263238;stroke-miterlimit:10;" d="M323.486,316.314c0,0-1.361-11.036-0.659-13.685
			c0.702-2.649,5.369-9.05,6.292-11.699s2.53-3.752,3.246-2.759c0.716,0.993,0.812,3.201,0.043,5.077
			c-0.768,1.876-3.012,6.401-3.012,6.401s2.781,7.394,2.442,9.491s-1.716,4.966-1.716,4.966"/>
		<g>
			<path style="fill:#FFFFFF;stroke:#263238;stroke-miterlimit:10;" d="M339.366,289.275c0,0-4.596,3.201-4.861,3.973
				c-0.264,0.773-0.206,3.642,0.781,3.752c0.987,0.11,4.073-1.766,5.381-3.421c1.308-1.655,1.175-3.201,0.777-3.973
				C341.047,288.833,340.397,288.613,339.366,289.275z"/>
			<path style="fill:#FFFFFF;stroke:#263238;stroke-miterlimit:10;" d="M340.097,306.893c0,0,1.379-0.714,1.561,0.803
				c0.182,1.517-0.297,3.659-1.403,4.283c-1.106,0.625-3.903,1.16-4.418,0.803c-0.515-0.357-1.377-0.892-0.34-1.874
				C336.534,309.927,340.097,306.893,340.097,306.893z"/>
			<path style="fill:#FFFFFF;stroke:#263238;stroke-miterlimit:10;" d="M340.752,299.87c0,0,1.706-0.883,1.93,0.993
				c0.225,1.876-0.367,4.525-1.735,5.297c-1.368,0.772-4.827,1.435-5.464,0.993c-0.637-0.441-1.703-1.104-0.42-2.318
				C336.345,303.622,340.752,299.87,340.752,299.87z"/>
			<path style="fill:#FFFFFF;stroke:#263238;stroke-miterlimit:10;" d="M339.832,294.683c0,0,1.706-0.883,1.93,0.993
				c0.225,1.876-0.367,4.525-1.735,5.297c-1.368,0.773-4.827,1.435-5.464,0.993c-0.637-0.441-1.703-1.104-0.42-2.318
				C335.426,298.435,339.832,294.683,339.832,294.683z"/>
		</g>
		<g>
			<path style="fill:#92E3A9;stroke:#263238;stroke-miterlimit:10;" d="M292.83,337.434l19.882,21.315l6.683-34.777l16.899,2.692
				c0,0-3.163,51.829-4.353,56.99c-1.19,5.16-1.931,10.321-4.637,10.545c-2.705,0.224-19.587-6.731-19.587-6.731L292.83,337.434z"/>
			<line style="fill:none;stroke:#263238;stroke-miterlimit:10;" x1="312.214" y1="371.355" x2="312.1" y2="374.258"/>
			<line style="fill:none;stroke:#263238;stroke-miterlimit:10;" x1="312.712" y1="358.749" x2="312.299" y2="369.218"/>
			<polygon style="fill:#FFFFFF;stroke:#263238;stroke-miterlimit:10;" points="321.395,324.323 321.873,319.836 335.433,322.079 
				334.966,326.342 			"/>
		</g>
		<g>
			<g>
				<path style="fill:#92E3A9;stroke:#263238;stroke-miterlimit:10;" d="M260.103,321.055c0,0-25.796,27.597-27.101,34.777
					c-1.304,7.18,5.736,53.175,5.736,53.175h75.612c0,0-14.638-62.374-19.442-68.657c-4.804-6.282-9.723-10.545-14.93-13.686
					C274.771,323.523,260.103,321.055,260.103,321.055z"/>
				<path style="fill:none;stroke:#263238;stroke-miterlimit:10;" d="M281.579,365.704c6.777,3.141,16.505,9.648,16.505,9.648
					l-0.68-15.706"/>
				<path style="fill:none;stroke:#263238;stroke-miterlimit:10;" d="M253.722,330.703c0,0,0.745,2.692,6.044,12.116
					c5.299,9.423,8.161,14.36,8.161,14.36l7.121-2.917l-2.811,6.058c0,0,1.775,1.553,6.274,3.884"/>
				<line style="fill:none;stroke:#263238;stroke-miterlimit:10;" x1="306.012" y1="395.974" x2="307.467" y2="399.808"/>
				<line style="fill:none;stroke:#263238;stroke-miterlimit:10;" x1="299.464" y1="378.718" x2="304.626" y2="392.322"/>
				<line style="fill:none;stroke:#263238;stroke-miterlimit:10;" x1="265.045" y1="398.344" x2="266.327" y2="405.193"/>
				<path style="fill:none;stroke:#263238;stroke-miterlimit:10;" d="M243.031,349.101c0,0,10.905,1.571,12.645,6.507
					s3.762,12.789,3.762,12.789l5.026,26.847"/>
			</g>
			<path style="fill:#FFFFFF;stroke:#263238;stroke-miterlimit:10;" d="M260.103,321.055c0,0-1.203,1.288-3.098,3.372
				c1.999,2.848,8.338,11.776,12.723,16.821c5.266,6.058,24.352,25.578,24.352,25.578s-1.581-23.559-5.124-32.309
				c-0.218-0.538-0.452-1.057-0.7-1.558c-2.693-2.522-5.442-4.583-8.279-6.295C274.771,323.523,260.103,321.055,260.103,321.055z"/>
			<path style="fill:#263238;stroke:#263238;stroke-miterlimit:10;" d="M292.241,349.333l-4.62-3.149l0.022-8.302l-6.752-3.59
				l-4.022,7.629l7.573,4.936l1.89,11.994c4.334,4.483,7.747,7.974,7.747,7.974S293.495,358.124,292.241,349.333z"/>
			<path style="fill:#FFFFFF;stroke:#263238;stroke-miterlimit:10;" d="M290.814,341.077c-0.546-2.561-1.164-4.846-1.857-6.56
				c-0.218-0.538-0.452-1.057-0.7-1.558c-2.693-2.522-5.442-4.583-8.279-6.295c-5.207-3.141-19.875-5.609-19.875-5.609
				s-1.203,1.288-3.098,3.372c1.999,2.848,8.338,11.776,12.723,16.821c1.39,1.599,3.747,4.14,6.458,7.009l5.663-11.047
				L290.814,341.077z"/>
		</g>
		<g>
			<path style="fill:#FFFFFF;stroke:#263238;stroke-miterlimit:10;" d="M300.611,279.323c0,0,2.281,11.218,1.756,12.565
				c-0.525,1.346-1.774,3.59-1.774,3.59s6.557,10.994,5.109,12.789c-1.448,1.795-4.191,2.692-4.191,2.692s-2.783,13.462-4.628,14.36
				c-1.846,0.898-9.225,0.449-9.225,0.449l-5.809,11.443c0,0-2.769,1.346-8.111-3.366c-5.342-4.712-13.634-12.789-13.634-12.789
				l3.548-7.18c0,0-9.249-10.994-9.638-19.969s11.445-23.783,24.31-25.129C291.189,267.431,303.397,273.713,300.611,279.323z"/>
			<path style="fill:#263238;stroke:#263238;stroke-miterlimit:10;" d="M296.882,325.318c1.846-0.897,4.628-14.36,4.628-14.36
				s-3.276-1.571-6.943-0.224c-3.666,1.346-6.088,4.487-6.088,4.487l-10.862-6.282l-1.006-13.911c0,0,6.414-6.282,9.42-7.853
				c3.006-1.57-2.336-6.282-3.83-7.628c-1.494-1.346,18.411-0.224,18.411-0.224c2.786-5.609-9.423-11.891-22.288-10.545
				c-12.865,1.346-24.699,16.155-24.31,25.129c0.389,8.975,9.638,19.969,9.638,19.969l5.787-3.141c0,0-0.597-1.346-1.918-1.795
				c-1.321-0.449-4.093-6.955-2.818-9.648c1.274-2.692,5.973-2.468,7.853,0c1.879,2.468,0.515,18.623,2.195,20.642
				c1.681,2.019,12.907,5.834,12.907,5.834S295.036,326.215,296.882,325.318z"/>
			<path style="fill:#263238;" d="M297.729,298.506c-0.067,1.177-0.623,2.132-1.243,2.132c-0.62,0-1.068-0.954-1.001-2.132
				c0.067-1.177,0.623-2.132,1.243-2.132S297.796,297.329,297.729,298.506z"/>
			<path style="fill:none;stroke:#263238;stroke-miterlimit:10;" d="M292.092,295.028c0,0,2.447-3.59,7.294-2.019"/>
			<path style="fill:none;stroke:#FFFFFF;stroke-miterlimit:10;" d="M297.84,316.343c0,0-2.98,1.122-5.283-1.795"/>
		</g>
	</g>
</g>
<g id="Character_4">
	<g>
		<path style="fill:#263238;stroke:#263238;stroke-miterlimit:10;" d="M361.752,357.711h-29.479c-2.894,0-5.074,2.631-4.537,5.475
			l8.65,45.772h38.877l-8.974-47.487C365.877,359.29,363.971,357.711,361.752,357.711z"/>
		<g>
			<path style="fill:#BFBFBF;stroke:#263238;stroke-miterlimit:10;" d="M381.701,339.205c0,0,15.907,30.129,18.152,35.743
				c2.246,5.614-0.749,17.591-0.749,18.34c0,0.749,3.368,15.72,3.368,15.72h-58.574l0.033-42.933c0,0-1.343-12.834,0.903-21.068
				c2.246-8.234,21.147-2.62,27.135-3.743C377.958,340.141,381.701,339.205,381.701,339.205z"/>
			<path style="fill:none;stroke:#263238;stroke-miterlimit:10;" d="M353.63,353.053c0,0,12.351,9.357,11.79,21.521
				c-0.561,12.164-0.187,34.433-0.187,34.433"/>
			<path style="fill:none;stroke:#263238;stroke-miterlimit:10;" d="M390.122,384.118c0,0-11.977,11.228-15.907,12.725"/>
			<line style="fill:none;stroke:#263238;stroke-miterlimit:10;" x1="386.192" y1="392.539" x2="377.022" y2="397.592"/>
		</g>
		<g>
			<path style="fill:#FFFFFF;stroke:#263238;stroke-miterlimit:10;" d="M393.401,283.309c0,0,5.232,7.373,5.708,12.129
				c0.476,4.757,0.238,7.611,2.141,9.513c1.903,1.903,4.519,3.568,3.33,5.47c-1.189,1.903-4.281,4.994-4.281,4.994
				s-3.33,11.416-5.232,13.081c-1.903,1.665-6.659,0.238-7.611,0.238s-2.141-0.238-2.141-0.238l-4.043,14.032l-16.648-14.032
				c0,0-5.708-11.178-3.568-21.405c2.141-10.227,19.026-15.697,21.88-19.027c2.854-3.33,5.232-7.135,6.422-7.611
				C390.547,279.979,393.401,283.309,393.401,283.309z"/>
			<path style="fill:#263238;stroke:#263238;stroke-miterlimit:10;" d="M378.894,302.339c0,0,0.187,5.053-1.497,6.363
				c-1.684,1.31-5.614-2.807-5.614-2.807L378.894,302.339z"/>
			<path style="fill:#263238;stroke:#263238;stroke-miterlimit:10;" d="M395.541,279.741c0,0,0.714,8.086-3.33,14.27
				c-4.043,6.184-10.94,8.086-16.886,11.892c-5.946,3.805-6.897,13.081-4.281,16.41c2.616,3.33,11.654,10.94,10.227,20.216
				c-1.427,9.276-3.805,14.746-12.367,9.989c-8.562-4.757-13.081-10.465-16.886-9.038c-3.805,1.427-6.897,4.043-6.897,7.373
				c0,3.33-1.189,15.221-1.189,15.221s-9.276-4.757-8.324-15.935c0.951-11.178,12.605-20.454,14.032-30.442
				c1.427-9.989-5.708-22.356,2.616-36.388S383.887,272.131,395.541,279.741z"/>
			<path style="fill:#263238;" d="M396.859,304.397c0.073,1.29-0.37,2.364-0.99,2.399c-0.619,0.035-1.18-0.983-1.253-2.272
				c-0.073-1.29,0.37-2.364,0.99-2.399C396.225,302.09,396.786,303.107,396.859,304.397z"/>
			<path style="fill:none;stroke:#263238;stroke-miterlimit:10;" d="M392.929,301.403c0,0,0.561-2.433,3.93-2.246"/>
			<path style="fill:none;stroke:#263238;stroke-miterlimit:10;" d="M396.859,317.31c0,0-2.059,0.749-4.491-1.31"/>
			<path style="fill:#263238;stroke:#263238;stroke-miterlimit:10;" d="M369.911,317.871l3.368,0.749l-2.058,2.433
				C371.221,321.053,369.163,321.427,369.911,317.871z"/>
		</g>
	</g>
</g>
<g id="Character_5">
	<g>
		<g>
			<path style="fill:#FFFFFF;stroke:#263238;stroke-miterlimit:10;" d="M503.492,282.92c0,0-11.766-8.341-13.851-9.83
				c-2.085-1.489-10.128-1.043-12.362-0.298c-2.234,0.745-4.766,1.191-2.83,4.319c1.936,3.128,9.83,10.873,11.468,12.213
				c1.638,1.34,6.404,0.894,7.298,0.894c0.894,0,2.532,0,2.532,0l5.064,2.532L503.492,282.92z"/>
			<g>
				
					<rect x="471.65" y="250.189" transform="matrix(0.8114 -0.5845 0.5845 0.8114 -69.8616 327.7003)" style="fill:#919191;stroke:#263238;stroke-miterlimit:10;" width="2.479" height="43.844"/>
				<g>
					<path style="fill:#919191;stroke:#263238;stroke-miterlimit:10;" d="M453.447,259.376l-1.405,1.012
						c-0.436,0.314-1.043,0.215-1.357-0.221l-7.116-9.88c-0.314-0.436-0.215-1.043,0.221-1.357l1.405-1.012
						c0.436-0.314,1.043-0.215,1.357,0.221l7.116,9.88C453.982,258.455,453.883,259.062,453.447,259.376z"/>
					<path style="fill:#919191;stroke:#263238;stroke-miterlimit:10;" d="M468.965,248.199l-1.307,0.942
						c-0.418,0.301-1.002,0.206-1.303-0.212l-7.161-9.943c-0.301-0.419-0.207-1.002,0.212-1.303l1.307-0.942
						c0.507-0.365,1.214-0.25,1.579,0.257l6.931,9.622C469.587,247.127,469.472,247.834,468.965,248.199z"/>
					<path style="fill:#919191;stroke:#263238;stroke-miterlimit:10;" d="M465.905,250.403l-10.663,7.681
						c-0.57,0.41-1.365,0.281-1.775-0.289l-6.767-9.394c-0.41-0.57-0.281-1.365,0.289-1.775l10.663-7.68
						c0.57-0.41,1.364-0.281,1.775,0.289l6.767,9.394C466.604,249.198,466.475,249.992,465.905,250.403z"/>
					
						<rect x="452.849" y="241.542" transform="matrix(0.8114 -0.5845 0.5845 0.8114 -59.2456 313.5815)" style="fill:#FFFFFF;stroke:#263238;stroke-miterlimit:10;" width="6.953" height="14.121"/>
				</g>
			</g>
			<path style="fill:#FFFFFF;stroke:#263238;stroke-miterlimit:10;" d="M493.96,276.367c0,0-4.915-4.319-7-5.213
				c-2.085-0.894-10.872-3.723-12.957-5.064c-2.085-1.34-4.319-3.426-4.021-0.745c0.298,2.681,2.234,5.809,4.319,6.702
				c2.085,0.894,4.915,1.191,4.915,1.191s2.681,5.362,5.064,6.553s5.362,0.894,5.362,0.894"/>
			<path style="fill:#FFFFFF;stroke:#263238;stroke-miterlimit:10;" d="M474.3,272.048c0,0-6.404,4.17-6.404,4.915
				c0,0.745,0.894,2.83,1.936,2.979c1.043,0.149,7.745-3.724,8.489-4.319c0.745-0.596-0.745-1.787-1.043-2.83
				C476.981,271.75,475.193,271.75,474.3,272.048z"/>
			<path style="fill:#FFFFFF;stroke:#263238;stroke-miterlimit:10;" d="M478.895,276.968c0,0-6.309,3.716-6.568,4.494
				c-0.259,0.778,0.605,2.074,1.21,2.333c0.605,0.259,2.16-0.346,3.37-1.21c1.21-0.864,3.889-1.988,3.889-3.197
				C480.797,278.178,480.105,276.881,478.895,276.968z"/>
			<path style="fill:#FFFFFF;stroke:#263238;stroke-miterlimit:10;" d="M481.401,280.165c0,0-6.309,3.716-6.568,4.494
				c-0.259,0.778,0.605,2.074,1.21,2.333c0.605,0.259,2.161-0.346,3.37-1.21c1.21-0.864,3.889-1.988,3.889-3.198
				C483.303,281.375,482.611,280.079,481.401,280.165z"/>
			<path style="fill:#FFFFFF;stroke:#263238;stroke-miterlimit:10;" d="M484.091,283.218c0,0-5.412,3.188-5.635,3.855
				c-0.222,0.667,0.519,1.779,1.038,2.002c0.519,0.222,1.853-0.297,2.891-1.038c1.038-0.741,3.336-1.705,3.336-2.743
				S485.129,283.144,484.091,283.218z"/>
		</g>
		<path style="fill:#92E3A9;stroke:#263238;stroke-miterlimit:10;" d="M549.601,261.104l-4.622,33.893l-36.094-11.885l-5.722,16.066
			c0,0,52.601,23.99,54.802,22.669c2.201-1.321,7.703-18.047,7.703-18.047L549.601,261.104z"/>
		<g>
			<path style="fill:#263238;stroke:#263238;stroke-miterlimit:10;" d="M579.175,352.712L582,409.007h60.129l6.659-46.206
				c0,0,1.009-11.501-3.834-19.774c0,0-28.45,6.659-43.785,6.659s-21.792-0.605-21.792-0.605L579.175,352.712z"/>
			<polyline style="fill:none;stroke:#FFFFFF;stroke-miterlimit:10;" points="593.904,363.406 597.94,366.029 602.177,408.806 			
				"/>
		</g>
		<path style="fill:#92E3A9;stroke:#263238;stroke-miterlimit:10;" d="M546.128,248.263c0,0,4.505,43.046,6.507,45.299
			c2.002,2.252,22.774,26.028,22.774,26.028l2.002,35.788l9.01,3.504l2.002-4.505l2.002,5.256c0,0,4.505,2.002,24.276,0
			c19.771-2.002,35.288-13.514,35.288-13.514s-14.265-43.547-16.768-49.303c-2.503-5.756-12.513-40.544-26.028-51.806
			c-13.515-11.262-34.885-18.059-36.79-18.52c-1.905-0.461-3.504-0.751-3.504-0.751L546.128,248.263z"/>
		<path style="fill:none;stroke:#263238;stroke-miterlimit:10;" d="M572.732,230.208l1.435,32.279c0,0-4.304,1.793-4.842,2.152
			c-0.538,0.359,5.559,8.249,5.559,8.249s-3.049,13.449-3.049,22.057c0,8.608,1.614,14.884,1.614,14.884
			s-13.988-14.346-17.395-17.395"/>
		<g>
			<polygon style="fill:#919191;stroke:#263238;stroke-miterlimit:10;" points="583.363,345.471 583.363,409.01 520.991,409.01 
				520.991,333.686 			"/>
			<path style="fill:#263238;stroke:#263238;stroke-miterlimit:10;" d="M583.363,345.471v7.98
				c-7.101-1.305-19.377-3.583-21.562-4.129c-3.111-0.778-3.629-5.703-3.629-5.703l-37.181-6.731v-3.203L583.363,345.471z"/>
			
				<rect x="502.023" y="335.927" transform="matrix(0.9834 0.1814 -0.1814 0.9834 70.4 -94.1687)" style="fill:#919191;stroke:#263238;stroke-miterlimit:10;" width="96.001" height="3.737"/>
		</g>
		<g>
			<path style="fill:#92E3A9;stroke:#263238;stroke-miterlimit:10;" d="M579.704,245.799c0,0-8.678,9.952-5.537,16.688
				c3.141,6.736,27.098,34.154,27.098,34.154l-16.237,31.144l10.381,8.252c0,0,25.022-27.95,27.151-31.41
				c2.13-3.46,6.122-8.518,5.59-11.18c-0.532-2.662-23.158-41.791-26.086-45.518"/>
			<polygon style="fill:#FFFFFF;stroke:#263238;stroke-miterlimit:10;" points="585.027,327.784 582.325,331.357 591.353,338.553 
				593.97,335.151 			"/>
			<g>
				<path style="fill:#FFFFFF;stroke:#263238;stroke-miterlimit:10;" d="M570.68,347.582c0,0,1.243,0.21,2.122-0.083
					c0.879-0.293,3.075-2.782,3.075-2.782l-2.05-0.293L570.68,347.582z"/>
				<path style="fill:#FFFFFF;stroke:#263238;stroke-miterlimit:10;" d="M582.325,331.357c0,0-16.618-1.178-18.58-1.178
					c-1.963,0-3.097,1.944-4.841,3.925c-0.869,0.987-4.259,6.365-4.259,6.365s1.773,5.934,2.82,5.803
					c1.047-0.131,1.047-0.131,1.047-0.131s1.57,0.916,3.14,0.916c1.57,0,2.094-0.131,2.094-0.131s0.916,0.392,2.486,0.392
					s1.57,0,1.57,0s1.57,0.654,2.879,0.262c1.308-0.393,6.019-7.458,6.019-7.458s6.281,2.748,9.159,0.785
					c2.879-1.963,3.794-3.533,3.794-3.533L582.325,331.357z"/>
				<path style="fill:none;stroke:#263238;stroke-miterlimit:10;" d="M558.511,346.142c0,0,3.14-10.86,4.318-12.561"/>
				<path style="fill:none;stroke:#263238;stroke-miterlimit:10;" d="M563.745,346.927c0,0,3.402-11.514,3.795-12.692"/>
				<path style="fill:none;stroke:#263238;stroke-miterlimit:10;" d="M567.801,347.32c0,0,4.187-10.86,4.972-11.776"/>
			</g>
		</g>
		<polygon style="fill:#FFFFFF;stroke:#263238;stroke-miterlimit:10;" points="508.885,283.113 503.045,281.282 498.875,294.835 
			504.087,297.069 		"/>
		<g>
			<path style="fill:#FFFFFF;stroke:#263238;stroke-miterlimit:10;" d="M568.967,299.607c0,0-7.319-6.398-11.859-11.557
				c-1.483-1.695-2.673-3.252-3.203-4.401c-2.152-4.662-6.211-33.132-6.211-33.132c2.934-7.841,20.808-24.484,20.808-24.484
				s-2.763,28.926-3.48,42.375c-0.155,2.967-0.057,6.137,0.204,9.292C566.139,288.824,568.967,299.607,568.967,299.607z"/>
			<path style="fill:#263238;stroke:#263238;stroke-miterlimit:10;" d="M568.967,299.607c0,0-7.319-6.398-11.859-11.557
				l-1.769-22.87l-4.304-5.379l0.717-7.71l8.248,4.303l-1.614,8.248l6.838,13.057C566.139,288.824,568.967,299.607,568.967,299.607z
				"/>
			<path style="fill:#FFFFFF;stroke:#263238;stroke-miterlimit:10;" d="M565.329,263.421c0.988-14.524,3.171-37.392,3.171-37.392
				s-17.873,16.648-20.808,24.491c0,0,0.839,5.881,1.955,12.731l0.131-0.047l4.483-6.276L565.329,263.421z"/>
		</g>
		<g>
			<path style="fill:#FFFFFF;stroke:#263238;stroke-miterlimit:10;" d="M520.071,202.827c0,0-0.921,7.734-0.368,10.864
				c0.552,3.13,1.473,6.629,1.473,9.391c0,2.762-4.419,10.496-2.762,11.417c1.657,0.921,6.813,2.21,6.813,2.21
				s9.575,13.995,11.233,13.811c1.657-0.184,6.261-3.683,6.261-3.683s6.997,5.156,8.47,6.629c1.473,1.473,3.683,2.025,3.683,2.025
				l13.626-29.463l-5.34-4.235c0,0,4.235-13.811,4.051-20.808c-0.184-6.997-13.995-17.862-22.833-18.046
				c-8.839-0.184-23.386,7.366-26.885,12.706C513.994,200.986,517.308,202.827,520.071,202.827z"/>
			<path style="fill:#263238;stroke:#263238;stroke-miterlimit:10;" d="M567.211,200.986c-0.184-6.997-13.995-17.862-22.833-18.046
				c-8.839-0.184-23.386,7.366-26.885,12.706c-3.499,5.34-0.184,7.182,2.578,7.182c0,0,4.419-0.368,6.997-1.473
				c2.578-1.105,8.102-4.051,8.102-4.051s-2.394,10.128-1.657,11.049c0.737,0.921,8.839,2.025,8.839,2.025s1.105,2.394,1.657,3.314
				c0.552,0.921,2.762,0.921,3.314,0.184c0.553-0.736,0-3.314,0.553-4.419c0.552-1.105,5.892-2.025,7.366,2.578
				c1.473,4.604-0.552,8.286-1.473,9.023c-0.921,0.737,1.289,0.368,4.051,1.105c2.762,0.737,5.34-0.368,5.34-0.368
				S567.395,207.983,567.211,200.986z"/>
			<path style="fill:#263238;" d="M528.608,220.653c0.525,1.045,0.508,2.114-0.037,2.388c-0.545,0.274-1.413-0.352-1.938-1.397
				c-0.525-1.045-0.508-2.114,0.037-2.388C527.215,218.983,528.083,219.608,528.608,220.653z"/>
			<path style="fill:none;stroke:#263238;stroke-miterlimit:10;" d="M523.753,217.374c0,0-0.921-3.867,5.524-2.578"/>
			<path style="fill:#263238;stroke:#263238;stroke-miterlimit:10;" d="M530.935,235.788c0,0,4.972-0.184,6.445-5.156
				c0,0,1.105,4.419-0.184,6.997C535.907,240.208,530.935,235.788,530.935,235.788z"/>
			<polygon style="fill:#263238;stroke:#263238;stroke-miterlimit:10;" points="542.72,246.837 549.717,240.944 547.692,250.52 			
				"/>
			<path style="fill:none;stroke:#263238;stroke-miterlimit:10;" d="M553.768,221.057l-1.841,1.657c0,0,2.026,3.683,2.21,5.708
				c0.184,2.026-0.368,3.13-0.368,3.13"/>
		</g>
	</g>
</g>
<g id="Line">
	<line style="fill:none;stroke:#263238;stroke-miterlimit:10;" x1="25.935" y1="409.007" x2="727.128" y2="409.007"/>
</g>
</svg>
