<?xml version="1.0" encoding="utf-8"?>
<!-- Generator: Adobe Illustrator 27.5.0, SVG Export Plug-In . SVG Version: 6.00 Build 0)  -->
<svg version="1.1" xmlns="http://www.w3.org/2000/svg" xmlns:xlink="http://www.w3.org/1999/xlink" x="0px" y="0px"
	 viewBox="0 0 750 500" style="enable-background:new 0 0 750 500;" xml:space="preserve">
<g id="Background_Simple">
	<g>
		<path style="fill:#92E3A9;" d="M624.527,129.014c0,0-102.786-105.269-236.354-113.391
			C254.606,7.501,176.711,93.776,139.802,145.238C102.893,196.701,10.84,282.436,21.669,360.952
			c10.83,78.516,117.323,138.08,269.842,111.908c152.519-26.172,196.741-36.099,266.232-16.245
			c69.491,19.855,159.739-9.927,161.544-122.738S624.527,129.014,624.527,129.014z"/>
		<path style="opacity:0.7;fill:#FFFFFF;" d="M624.527,129.014c0,0-102.786-105.269-236.354-113.391
			C254.606,7.501,176.711,93.776,139.802,145.238C102.893,196.701,10.84,282.436,21.669,360.952
			c10.83,78.516,117.323,138.08,269.842,111.908c152.519-26.172,196.741-36.099,266.232-16.245
			c69.491,19.855,159.739-9.927,161.544-122.738S624.527,129.014,624.527,129.014z"/>
	</g>
</g>
<g id="Floor">
	<g>
		<g>
			
				<line style="fill:none;stroke:#263238;stroke-linecap:round;stroke-linejoin:round;stroke-miterlimit:10;" x1="25.608" y1="385.846" x2="708.364" y2="385.846"/>
			<polyline style="fill:none;stroke:#263238;stroke-linecap:round;stroke-linejoin:round;stroke-miterlimit:10;" points="
				719.215,388.873 503.883,388.258 415.727,471.861 			"/>
			<polyline style="fill:none;stroke:#263238;stroke-linecap:round;stroke-linejoin:round;stroke-miterlimit:10;" points="
				8.237,388.418 487.716,388.418 466.619,402.943 103.821,402.943 			"/>
			<polyline style="fill:none;stroke:#263238;stroke-linecap:round;stroke-linejoin:round;stroke-miterlimit:10;" points="
				42.257,433.401 429.992,433.401 463.563,407.5 66.068,407.5 			"/>
		</g>
		<polyline style="fill:none;stroke:#263238;stroke-linecap:round;stroke-linejoin:round;stroke-miterlimit:10;" points="
			385.81,470.452 424.747,438.428 34.545,438.428 		"/>
	</g>
</g>
<g id="Arrow">
	
		<polyline style="opacity:0.3;fill:none;stroke:#000000;stroke-linecap:round;stroke-linejoin:round;stroke-miterlimit:10;" points="
		48.243,286.33 261.534,185.344 367.744,218.425 635.88,53.887 620.21,37.346 698.561,31.252 670.703,90.451 650.68,68.687 
		372.967,273.272 263.275,243.672 36.055,345.529 	"/>
</g>
<g id="Coins">
	<g style="opacity:0.3;">
		
			<ellipse transform="matrix(0.9941 -0.1087 0.1087 0.9941 -7.074 43.8446)" style="fill:none;stroke:#000000;stroke-linecap:round;stroke-linejoin:round;stroke-miterlimit:10;" cx="398.702" cy="86.82" rx="37.187" ry="37.187"/>
		
			<ellipse transform="matrix(0.4751 -0.8799 0.8799 0.4751 132.8724 396.3931)" style="fill:none;stroke:#000000;stroke-linecap:round;stroke-linejoin:round;stroke-miterlimit:10;" cx="398.702" cy="86.82" rx="31.703" ry="31.703"/>
		<path style="fill:none;stroke:#000000;stroke-linecap:round;stroke-linejoin:round;stroke-miterlimit:10;" d="M412.193,93.183
			c0-10.665-15.118-10.9-15.118-15.354c0-2.343,1.23-3.047,3.75-3.047c2.168,0,3.984,0.938,6.095,2.813l4.981-5.744
			c-2.315-2.457-5.142-4.283-8.849-4.906V60.95h-6.566v6.172c-5.647,1.222-9.025,5.25-9.025,11.176
			c0,10.256,15.121,10.901,15.121,15.588c0,2.286-1.171,3.283-4.101,3.283c-2.462,0-4.924-0.938-8.089-3.283l-4.336,6.798
			c2.906,2.616,7.08,4.014,10.431,4.427V111h6.566v-6.3C409.172,103.245,412.193,98.826,412.193,93.183z"/>
	</g>
	<g style="opacity:0.3;">
		
			<ellipse transform="matrix(0.984 -0.1784 0.1784 0.984 -7.8306 32.7482)" style="fill:none;stroke:#000000;stroke-linecap:round;stroke-linejoin:round;stroke-miterlimit:10;" cx="178.153" cy="59.91" rx="25.859" ry="25.859"/>
		
			<ellipse transform="matrix(0.7071 -0.7071 0.7071 0.7071 9.8175 143.5205)" style="fill:none;stroke:#000000;stroke-linecap:round;stroke-linejoin:round;stroke-miterlimit:10;" cx="178.153" cy="59.91" rx="22.046" ry="22.046"/>
		<path style="fill:none;stroke:#000000;stroke-linecap:round;stroke-linejoin:round;stroke-miterlimit:10;" d="M187.535,64.334
			c0-7.416-10.513-7.58-10.513-10.677c0-1.629,0.855-2.119,2.608-2.119c1.508,0,2.77,0.653,4.238,1.957l3.464-3.994
			c-1.61-1.709-3.576-2.978-6.153-3.412V41.92h-4.566v4.292c-3.927,0.849-6.276,3.651-6.276,7.771c0,7.132,10.515,7.58,10.515,10.84
			c0,1.59-0.815,2.283-2.852,2.283c-1.712,0-3.424-0.653-5.625-2.283l-3.015,4.727c2.021,1.819,4.923,2.791,7.254,3.078v4.095h4.566
			v-4.381C185.434,71.331,187.535,68.258,187.535,64.334z"/>
	</g>
	<g style="opacity:0.3;">
		<path style="fill:none;stroke:#000000;stroke-linecap:round;stroke-linejoin:round;stroke-miterlimit:10;" d="M305.185,139.474
			c0-10.246-8.306-18.553-18.552-18.553c-10.246,0-18.552,8.306-18.552,18.553c0,10.246,8.306,18.552,18.552,18.552
			C296.879,158.026,305.185,149.72,305.185,139.474z"/>
		<path style="fill:none;stroke:#000000;stroke-linecap:round;stroke-linejoin:round;stroke-miterlimit:10;" d="M302.449,139.474
			c0-8.735-7.081-15.817-15.816-15.817s-15.816,7.081-15.816,15.817c0,8.735,7.081,15.816,15.816,15.816
			S302.449,148.209,302.449,139.474z"/>
		<path style="fill:none;stroke:#000000;stroke-linecap:round;stroke-linejoin:round;stroke-miterlimit:10;" d="M293.364,142.648
			c0-5.321-7.542-5.438-7.542-7.66c0-1.169,0.614-1.52,1.871-1.52c1.082,0,1.987,0.468,3.041,1.404l2.485-2.865
			c-1.155-1.226-2.565-2.137-4.415-2.448v-2.991h-3.276v3.079c-2.817,0.609-4.503,2.619-4.503,5.575
			c0,5.117,7.544,5.438,7.544,7.777c0,1.14-0.584,1.638-2.046,1.638c-1.228,0-2.457-0.468-4.036-1.638l-2.163,3.392
			c1.45,1.305,3.532,2.003,5.204,2.208v2.938h3.276v-3.143C291.857,147.668,293.364,145.463,293.364,142.648z"/>
	</g>
	<g style="opacity:0.3;">
		
			<ellipse transform="matrix(0.984 -0.1779 0.1779 0.984 -42.1692 102.3562)" style="fill:none;stroke:#000000;stroke-linecap:round;stroke-linejoin:round;stroke-miterlimit:10;" cx="549.693" cy="286.33" rx="25.859" ry="25.859"/>
		
			<ellipse transform="matrix(0.8408 -0.5413 0.5413 0.8408 -67.4936 343.1458)" style="fill:none;stroke:#000000;stroke-linecap:round;stroke-linejoin:round;stroke-miterlimit:10;" cx="549.693" cy="286.33" rx="22.046" ry="22.046"/>
		<path style="fill:none;stroke:#000000;stroke-linecap:round;stroke-linejoin:round;stroke-miterlimit:10;" d="M559.075,290.755
			c0-7.416-10.513-7.58-10.513-10.677c0-1.629,0.855-2.119,2.608-2.119c1.508,0,2.77,0.652,4.238,1.956l3.464-3.994
			c-1.61-1.709-3.576-2.978-6.153-3.412v-4.168h-4.566v4.292c-3.927,0.849-6.276,3.651-6.276,7.771
			c0,7.132,10.515,7.58,10.515,10.84c0,1.589-0.815,2.283-2.852,2.283c-1.712,0-3.424-0.652-5.625-2.283l-3.015,4.727
			c2.021,1.819,4.923,2.791,7.254,3.078v4.095h4.566v-4.381C556.974,297.751,559.075,294.679,559.075,290.755z"/>
	</g>
	<g style="opacity:0.3;">
		
			<ellipse transform="matrix(0.9975 -0.0709 0.0709 0.9975 -11.9285 6.079)" style="fill:none;stroke:#000000;stroke-linecap:round;stroke-linejoin:round;stroke-miterlimit:10;" cx="79.682" cy="171.099" rx="25.859" ry="25.859"/>
		
			<ellipse transform="matrix(0.1222 -0.9925 0.9925 0.1222 -99.8708 229.2785)" style="fill:none;stroke:#000000;stroke-linecap:round;stroke-linejoin:round;stroke-miterlimit:10;" cx="79.682" cy="171.099" rx="22.046" ry="22.046"/>
		<path style="fill:none;stroke:#000000;stroke-linecap:round;stroke-linejoin:round;stroke-miterlimit:10;" d="M89.064,175.523
			c0-7.416-10.513-7.58-10.513-10.677c0-1.629,0.855-2.119,2.608-2.119c1.508,0,2.77,0.652,4.238,1.956l3.464-3.994
			c-1.61-1.709-3.576-2.978-6.153-3.412v-4.168h-4.566v4.292c-3.927,0.849-6.276,3.651-6.276,7.771
			c0,7.132,10.515,7.58,10.515,10.84c0,1.589-0.814,2.283-2.852,2.283c-1.712,0-3.424-0.652-5.625-2.283l-3.015,4.727
			c2.021,1.819,4.923,2.791,7.254,3.078v4.095h4.566v-4.381C86.963,182.52,89.064,179.447,89.064,175.523z"/>
	</g>
</g>
<g id="Character_4">
	<g>
		<path style="fill:#FFFFFF;stroke:#263238;stroke-linecap:round;stroke-linejoin:round;stroke-miterlimit:10;" d="M614.394,383.232
			c0,0-3.326,4.158-5.197,6.029c-1.871,1.871-6.652,7.9-8.108,11.434c-1.455,3.534,2.495,4.366,7.276,3.118
			c4.781-1.247,9.771-5.821,11.226-8.731c1.455-2.91,2.702-4.366,3.326-5.821c0.624-1.455,0.416-4.573,0.416-5.613
			S614.394,383.232,614.394,383.232z"/>
		<path style="fill:#FFFFFF;stroke:#263238;stroke-linecap:round;stroke-linejoin:round;stroke-miterlimit:10;" d="M681.749,381.361
			c0,0,3.326,15.799,4.573,18.71s6.237,9.563,9.147,5.821c2.91-3.742,4.366-10.394,1.455-15.176
			c-2.91-4.781-8.731-12.473-8.731-12.473L681.749,381.361z"/>
		<path style="fill:#263238;stroke:#263238;stroke-linecap:round;stroke-linejoin:round;stroke-miterlimit:10;" d="M611.74,222.993
			l-0.614,31.475c0,0-2.543,49.053-0.461,91.814c0.631,12.956,1.535,38.23,1.535,38.23s2.61,3.071,4.452,3.224
			s8.598-1.842,8.598-1.842l5.029-32.159l1.86-24.797l7.39-62.955l2.61,1.382l20.727,68.323l17.503,47.136l7.677,4.76l3.071-8.444
			l-7.063-49.899l-13.818-81.374l-7.216-23.491L611.74,222.993z"/>
		<g>
			<path style="fill:#FFFFFF;stroke:#263238;stroke-linecap:round;stroke-linejoin:round;stroke-miterlimit:10;" d="M619.016,150.48
				l-37.396,2.877l-14.345-49.796l-1.534-11.698l-13.091,3.962c0,0,1.776,8.312,3.311,9.654c1.534,1.342,3.999,2.048,3.999,2.048
				s9.409,64.812,10.56,64.812c1.151,0,33.155-0.572,33.155-0.572l8.63,57.149c0,0,4.219,5.561,16.301,6.329
				c12.082,0.767,23.972-0.575,29.917-4.219c5.945-3.644,4.411-8.822,4.411-8.822s7.671-51.204,5.945-55.04
				c-1.726-3.835-24.164-17.068-24.164-17.068L619.016,150.48z"/>
			<g>
				<path style="fill:#FFFFFF;stroke:#263238;stroke-linecap:round;stroke-linejoin:round;stroke-miterlimit:10;" d="
					M563.391,94.096c0,0-1.427-5.409-1.202-5.935c0.225-0.526,2.554-1.277,3.08-0.826c0.526,0.451,1.728,6.535,1.578,6.911
					c-0.15,0.376-1.703,1.317-2.542,1.109C563.466,95.148,563.391,94.096,563.391,94.096z"/>
				<path style="fill:#FFFFFF;stroke:#263238;stroke-linecap:round;stroke-linejoin:round;stroke-miterlimit:10;" d="
					M559.184,94.547c0,0-1.427-5.409-1.202-5.935c0.225-0.526,2.554-1.277,3.08-0.826c0.526,0.451,1.728,6.535,1.578,6.911
					c-0.15,0.376-1.703,1.317-2.542,1.109C559.259,95.599,559.184,94.547,559.184,94.547z"/>
				<path style="fill:#FFFFFF;stroke:#263238;stroke-linecap:round;stroke-linejoin:round;stroke-miterlimit:10;" d="M556.18,96.951
					c0,0-1.427-5.409-1.202-5.935c0.225-0.526,2.554-1.277,3.08-0.826c0.526,0.451,1.728,6.535,1.578,6.911
					c-0.15,0.376-1.703,1.317-2.542,1.109C556.255,98.003,556.18,96.951,556.18,96.951z"/>
				<path style="fill:#FFFFFF;stroke:#263238;stroke-linecap:round;stroke-linejoin:round;stroke-miterlimit:10;" d="
					M553.049,98.546c0,0-1.325-5.02-1.115-5.508c0.209-0.488,2.37-1.185,2.858-0.767c0.488,0.418,1.604,6.065,1.464,6.414
					c-0.14,0.349-1.581,1.222-2.359,1.029C553.118,99.522,553.049,98.546,553.049,98.546z"/>
			</g>
			<path style="fill:#FFFFFF;stroke:#263238;stroke-linecap:round;stroke-linejoin:round;stroke-miterlimit:10;" d="
				M562.096,103.177c-1.342-1.918,3.26-7.671,3.26-7.671s-6.137,0.384-5.562-0.767c0.575-1.151,5.37-1.342,5.37-1.342
				s5.753-0.959,5.178,1.342c-0.575,2.301-3.644,10.931-3.644,10.931"/>
		</g>
		<g>
			<path style="fill:#92E3A9;stroke:#263238;stroke-linecap:round;stroke-linejoin:round;stroke-miterlimit:10;" d="
				M668.878,167.164c-1.726-3.835-24.164-17.068-24.164-17.068l-25.698,0.384l-34.902,2.685l-2.79,19.34
				c8.815-0.283,22.35-0.738,22.35-0.738l8.63,57.149c0,0,4.219,5.562,16.301,6.329c12.082,0.767,23.972-0.575,29.917-4.219
				c5.945-3.644,4.411-8.822,4.411-8.822S670.603,171,668.878,167.164z"/>
			<polygon style="fill:#263238;stroke:#263238;stroke-linecap:round;stroke-linejoin:round;stroke-miterlimit:10;" points="
				623.745,164.346 626.732,175.183 624.478,225.077 628.985,238.275 637.676,225.399 629.629,175.183 633.492,165.848 
				627.697,160.053 			"/>
			<path style="fill:#FFFFFF;stroke:#263238;stroke-linecap:round;stroke-linejoin:round;stroke-miterlimit:10;" d="M581.62,153.356
				l-3.964,20.352c0,0,5.527,0.614,6.141,0.154c0.614-0.461,4.146-21.342,4.146-21.342L581.62,153.356z"/>
		</g>
		<g>
			<path style="fill:#FFFFFF;stroke:#263238;stroke-linecap:round;stroke-linejoin:round;stroke-miterlimit:10;" d="
				M625.199,157.514c0.291-0.581-3.78,4.798-3.78,4.798l-1.89,7.414l4.216-5.379l5.088,5.67l1.018-10.467L625.199,157.514z"/>
			<polygon style="fill:#FFFFFF;stroke:#263238;stroke-linecap:round;stroke-linejoin:round;stroke-miterlimit:10;" points="
				622.873,152.716 628.833,170.016 642.935,146.61 636.953,134.58 634.939,134.107 632.177,144.139 			"/>
			<polygon style="fill:#263238;stroke:#263238;stroke-linecap:round;stroke-linejoin:round;stroke-miterlimit:10;" points="
				634.577,142.765 625.336,159.687 622.873,152.716 			"/>
			<path style="fill:#FFFFFF;stroke:#263238;stroke-linecap:round;stroke-linejoin:round;stroke-miterlimit:10;" d="
				M642.499,143.557l-13.956,21.952c0,0,5.088,6.833,4.943,6.397c-0.145-0.436,14.538-21.371,14.538-21.371L642.499,143.557z"/>
		</g>
		<g>
			<g>
				<path style="fill:#FFFFFF;stroke:#263238;stroke-linecap:round;stroke-linejoin:round;stroke-miterlimit:10;" d="
					M606.606,115.739c0,0-0.126,14.288,0.379,14.668c0.506,0.379,3.161,3.161,3.161,3.161s-2.529,7.46-2.15,7.84
					c0.379,0.379,4.552,1.897,4.552,1.897s2.655,8.978,3.667,10.495c1.011,1.517,3.161,2.023,4.426,1.77s13.53-9.231,14.794-10.495
					c1.264-1.265,1.517-10.495,1.517-10.495s4.173-0.253,4.679-3.414c0.506-3.161-1.391-4.805-1.391-4.805l-4.299-14.036
					c0,0,0-2.023-8.978-4.173c-8.978-2.15-15.679,2.402-17.07,3.414C608.503,112.578,606.606,115.739,606.606,115.739z"/>
				<path style="fill:#263238;" d="M616.469,131.925c0.256,0.798,0.059,1.575-0.44,1.734c-0.499,0.16-1.111-0.357-1.366-1.155
					c-0.256-0.798-0.059-1.574,0.44-1.734C615.601,130.609,616.213,131.127,616.469,131.925z"/>
				<path style="fill:none;stroke:#263238;stroke-linecap:round;stroke-linejoin:round;stroke-miterlimit:10;" d="M611.79,130.154
					c0,0,1.517-3.035,5.437-2.782"/>
				<path style="fill:#263238;" d="M620,143.988c0.995,1.305,1.127,2.878,0.294,3.513c-0.833,0.635-2.315,0.092-3.31-1.213
					c-0.995-1.305-1.127-2.878-0.294-3.513C617.523,142.14,619.005,142.683,620,143.988z"/>
			</g>
			<path style="fill:#263238;stroke:#263238;stroke-linecap:round;stroke-linejoin:round;stroke-miterlimit:10;" d="
				M610.273,106.635c0,0-8.219,4.805-7.46,6.449c0.759,1.644,3.414,4.552,5.184,4.552c1.77,0,13.024-4.426,13.656-3.541
				c0.632,0.885-2.908,7.587-0.759,7.84s6.575,0.126,6.575,0.126l1.264,7.081l3.793,1.012c0,0,2.276-3.92,3.414-4.552
				c1.138-0.632,4.299,0.759,4.299,0.759s2.023-9.483,0.759-13.656c-1.264-4.173-7.207-7.713-14.415-8.851
				C619.377,102.715,610.273,106.635,610.273,106.635z"/>
		</g>
		<g>
			<polygon style="fill:#92E3A9;stroke:#263238;stroke-linecap:round;stroke-linejoin:round;stroke-miterlimit:10;" points="
				590.399,158.201 591.781,170.791 598.229,168.949 598.843,155.745 			"/>
			<path style="fill:#FFFFFF;stroke:#263238;stroke-linecap:round;stroke-linejoin:round;stroke-miterlimit:10;" d="
				M558.003,136.092l2.691,1.379c10.203,5.23,21.614,7.649,33.061,7.01l8.379-0.468c0.917-0.051,1.719,0.611,1.842,1.52l1.257,9.255
				c0.121,0.893-0.451,1.733-1.326,1.947l-5.076,1.239c-12.882,3.146-24.484,10.181-33.229,20.15l-1.918,2.186L558.003,136.092z"/>
			<path style="fill:#92E3A9;stroke:#263238;stroke-linecap:round;stroke-linejoin:round;stroke-miterlimit:10;" d="
				M566.212,156.488c2.061,13.843-0.075,25.633-4.772,26.332c-4.697,0.699-10.175-9.956-12.237-23.799
				c-2.061-13.843,0.075-25.633,4.772-26.332C558.672,131.989,564.151,142.644,566.212,156.488z"/>
			<path style="fill:#FFFFFF;stroke:#263238;stroke-linecap:round;stroke-linejoin:round;stroke-miterlimit:10;" d="
				M560.715,177.921c-3.14,0.47-7.02-8.18-8.68-19.32c-1.66-11.14-0.47-20.55,2.67-21.02c2.49-0.37,5.45,5.02,7.39,12.83
				c0.51,2.02,0.95,4.21,1.29,6.5c0.36,2.39,0.58,4.7,0.68,6.86C564.445,171.681,563.175,177.551,560.715,177.921z"/>
			<path style="fill:#FFFFFF;stroke:#263238;stroke-linecap:round;stroke-linejoin:round;stroke-miterlimit:10;" d="
				M564.065,163.771l-3.45-0.92l-1.52-10.2l3-2.24c0.51,2.02,0.95,4.21,1.29,6.5C563.745,159.301,563.965,161.611,564.065,163.771z"
				/>
			<path style="fill:#FFFFFF;stroke:#263238;stroke-linecap:round;stroke-linejoin:round;stroke-miterlimit:10;" d="M561.292,157.54
				c0.419,2.816,0.117,5.194-0.676,5.312c-0.792,0.118-1.775-2.069-2.194-4.885c-0.419-2.816-0.117-5.194,0.676-5.312
				C559.89,152.537,560.873,154.724,561.292,157.54z"/>
			<g>
				
					<line style="fill:none;stroke:#263238;stroke-linecap:round;stroke-linejoin:round;stroke-miterlimit:10;" x1="526.132" y1="139.858" x2="539.771" y2="146.057"/>
				
					<line style="fill:none;stroke:#263238;stroke-linecap:round;stroke-linejoin:round;stroke-miterlimit:10;" x1="524.892" y1="162.796" x2="539.771" y2="160.316"/>
				
					<line style="fill:none;stroke:#263238;stroke-linecap:round;stroke-linejoin:round;stroke-miterlimit:10;" x1="545.35" y1="173.954" x2="533.571" y2="182.634"/>
			</g>
			<path style="fill:#92E3A9;stroke:#263238;stroke-linecap:round;stroke-linejoin:round;stroke-miterlimit:10;" d="M598.83,157.974
				l5.076-1.239c0.875-0.214,1.448-1.054,1.326-1.947l-1.257-9.255c-0.124-0.91-0.926-1.572-1.842-1.52l-8.379,0.468
				c-1.642,0.092-3.283,0.113-4.92,0.08l3.349,15.428C594.355,159.204,596.572,158.526,598.83,157.974z"/>
		</g>
		<path style="fill:#FFFFFF;stroke:#263238;stroke-linecap:round;stroke-linejoin:round;stroke-miterlimit:10;" d="M598.536,162.961
			c0.614-0.154-10.133,0.768-10.133,0.768s-1.535,1.228-0.921,3.071c0.614,1.842,2.457,1.842,2.457,1.842s-0.614,7.523,0.614,8.291
			c1.228,0.768,2.764,1.842,4.146,1.842c1.382,0,6.602,0,6.602,0s26.715,28.251,30.247,31.475c3.531,3.224,14.739,9.673,17.196,7.37
			c2.457-2.303,4.913-9.98,4.913-9.98l-10.44-10.901l-37.77-24.719L598.536,162.961z"/>
		<path style="fill:#92E3A9;stroke:#263238;stroke-linecap:round;stroke-linejoin:round;stroke-miterlimit:10;" d="M651.813,169.102
			l-7.523,24.719l14.739,9.059c0,0,11.515-23.952,12.59-26.562c1.075-2.61,2.149-6.602-0.461-9.059
			c-2.61-2.457-10.901-5.988-10.901-5.988"/>
		<polygon style="fill:#FFFFFF;stroke:#263238;stroke-linecap:round;stroke-linejoin:round;stroke-miterlimit:10;" points="
			641.219,195.05 644.597,191.058 662.407,199.349 654.423,210.25 		"/>
	</g>
</g>
<g id="Character_3">
	<g>
		<g>
			<path style="fill:#C9C9C9;stroke:#263238;stroke-linecap:round;stroke-linejoin:round;stroke-miterlimit:10;" d="
				M392.477,218.821c0,0-15.394-0.375-16.52,0.939c-1.126,1.314-13.704,32.477-15.018,40.924c-1.314,8.448-1.69,15.394-1.502,16.708
				c0.188,1.314,3.567,5.256,4.881,5.069c1.314-0.188,7.134-3.379,8.072-4.13c0.939-0.751-0.375-3.567-0.375-3.567
				s1.314-0.563,1.314-2.816c0-2.253-4.881-9.762-4.881-9.762l15.957-28.722h7.697L392.477,218.821z"/>
			<path style="fill:#C9C9C9;stroke:#263238;stroke-linecap:round;stroke-linejoin:round;stroke-miterlimit:10;" d="
				M372.015,274.764c0,0-5.82,2.44-6.758,1.877c-0.939-0.563-0.939-2.628-0.375-3.004c0.563-0.375,5.444-2.628,5.444-2.628"/>
			<path style="fill:#C9C9C9;stroke:#263238;stroke-linecap:round;stroke-linejoin:round;stroke-miterlimit:10;" d="
				M366.571,268.757c0,0,1.877,2.065,0.751,3.567"/>
			<path style="fill:#C9C9C9;stroke:#263238;stroke-linecap:round;stroke-linejoin:round;stroke-miterlimit:10;" d="
				M364.881,273.637l-3.942,2.628c0,0,0.188,1.877,1.126,2.44"/>
		</g>
		<path style="fill:#92E3A9;stroke:#263238;stroke-linecap:round;stroke-linejoin:round;stroke-miterlimit:10;" d="M434.34,213.189
			c0,0-42.614,2.253-43.553,4.318c-0.939,2.065-2.253,9.762-0.751,15.581c0.697,2.702,2.628,3.379,2.628,3.379l21.964-2.816
			c0,0,8.448-7.134,12.39-10.888C430.961,219.009,434.34,213.189,434.34,213.189z"/>
		<path style="fill:#263238;stroke:#263238;stroke-linecap:round;stroke-linejoin:round;stroke-miterlimit:10;" d="M487.272,183.153
			c0,3.941-6.747,3.309-8.629,6.57c-4.305,7.461-7.204,16.895-17.086,16.895c-14.202,0-25.715-10.506-25.715-23.466
			s11.513-23.466,25.715-23.466S487.272,170.193,487.272,183.153z"/>
		<path style="fill:#263238;stroke:#263238;stroke-linecap:round;stroke-linejoin:round;stroke-miterlimit:10;" d="M392.475,279.945
			c0,0-5.491,7.688-6.59,12.63c-1.098,4.942-15.8,52.298-15.8,52.298l-62.19,29.516c0,0-10.983-0.275-11.807,1.647
			c-0.824,1.922-2.197,19.495-1.648,21.691c0.549,2.197,1.373,6.315,3.57,6.315c2.197,0,4.393-8.512,4.393-8.512l10.708-14.278
			c0,0,67.832-17.015,69.204-17.839c1.373-0.824,35.969-46.403,35.969-46.403l9.335,1.922l40.088,20.868
			c0,0,45.154,69.321,46.527,69.596c1.373,0.275,14.827-14.827,16.749-17.847c1.922-3.02,3.295-6.315,0.549-4.942
			c-2.746,1.373-18.396,5.766-18.396,5.766s-27.032-67.674-27.856-69.046c-0.824-1.373-45.03-32.674-45.03-32.674l-2.197-7.414
			L392.475,279.945z"/>
		<g>
			<path style="fill:#92E3A9;stroke:#263238;stroke-linecap:round;stroke-linejoin:round;stroke-miterlimit:10;" d="
				M441.474,209.435c0,0-17.083,5.82-23.09,14.079c-6.007,8.26-26.845,56.506-27.22,59.134c-0.375,2.628,4.693,7.697,17.271,8.448
				c12.578,0.751,25.343-1.126,28.159-3.567c2.816-2.44,4.693-8.448,4.693-8.448s12.578-37.733,12.765-42.614
				c0.188-4.881-3.379-12.202-3.379-12.202L441.474,209.435z"/>
			<path style="fill:none;stroke:#263238;stroke-linecap:round;stroke-linejoin:round;stroke-miterlimit:10;" d="M416.119,259.749
				c-3.841,1.584-7.167,2.912-9.053,3.573"/>
			<path style="fill:none;stroke:#263238;stroke-linecap:round;stroke-linejoin:round;stroke-miterlimit:10;" d="M440.269,249.487
				c0,0-10.971,4.764-20.603,8.789"/>
			
				<line style="fill:none;stroke:#263238;stroke-linecap:round;stroke-linejoin:round;stroke-miterlimit:10;" x1="443.382" y1="253.983" x2="431.276" y2="262.976"/>
		</g>
		<g>
			<path style="fill:#C9C9C9;stroke:#263238;stroke-linecap:round;stroke-linejoin:round;stroke-miterlimit:10;" d="
				M481.084,180.337c0,0,1.502,6.758-0.188,9.762c-1.69,3.004-5.069,6.946-4.13,8.823c0.939,1.877,5.069,3.755,2.44,6.758
				c-2.628,3.004-4.881,1.314-4.881,1.314s-0.563,5.069-2.253,6.007c-1.69,0.939-1.69,0.939-1.69,0.939s0.939,3.755-1.314,4.693
				c-2.253,0.939-4.318,0.375-7.509-0.939c-3.191-1.314-14.267,10.701-14.267,10.701l-5.82-18.96l5.444-6.946
				c0,0-1.69-3.567-2.816-9.95c-1.126-6.383,9.199-2.628,9.199-2.628s10.325-4.693,10.888-7.697
				c0.563-3.004,5.632-7.509,9.574-6.946C477.705,175.832,481.084,180.337,481.084,180.337z"/>
			<path style="fill:#C9C9C9;stroke:#263238;stroke-linecap:round;stroke-linejoin:round;stroke-miterlimit:10;" d="
				M454.802,194.417c0,0-1.502-7.697-5.632-8.072c-4.13-0.376-4.13,8.072-3.567,10.7s5.444,5.069,7.697,3.191"/>
			<path style="fill:none;stroke:#263238;stroke-linecap:round;stroke-linejoin:round;stroke-miterlimit:10;" d="M472.073,190.474
				c0,0,4.693-2.065,4.693,3.191"/>
			<path style="fill:#263238;" d="M474.461,197.182c-0.359,1.083-1.088,1.815-1.63,1.636c-0.541-0.179-0.689-1.202-0.331-2.285
				s1.088-1.815,1.63-1.635C474.672,195.076,474.82,196.099,474.461,197.182z"/>
		</g>
		<polygon style="fill:#FFFFFF;stroke:#263238;stroke-linecap:round;stroke-linejoin:round;stroke-miterlimit:10;" points="
			442.788,204.742 454.427,229.146 447.481,232.901 437.719,209.059 		"/>
		<path style="fill:#C9C9C9;stroke:#263238;stroke-linecap:round;stroke-linejoin:round;stroke-miterlimit:10;" d="M479.958,241.911
			l8.635,0.939l1.502-26.469c0,0-5.632-1.126-6.383-1.502c-0.751-0.375-3.567-4.505-3.379-6.195c0.188-1.69,3.191-3.755,3.191-3.755
			s2.44-5.632,4.13-5.069c1.689,0.563,2.628,1.689,2.628,1.689s5.632,2.065,7.134,4.505c1.502,2.44,1.314,9.95,1.314,9.95
			s6.383,40.737,6.383,43.177c0,2.44-0.188,4.13-2.253,4.881c-2.065,0.751-31.35-5.256-31.35-5.256L479.958,241.911z"/>
		<path style="fill:#263238;stroke:#263238;stroke-linecap:round;stroke-linejoin:round;stroke-miterlimit:10;" d="M448.193,225.689
			l-12.212-19.393c0,0-17.403-0.494-18.492-0.664c-1.089-0.171-13.192-8.389-14.95-9.036c-1.758-0.647-16.52,3.364-16.52,3.364
			l-7.867,8.867l10.518,2.706l15.046-5.826l14.281,8.559l15.26-2.445l14.037,16.575L448.193,225.689z"/>
		<path style="fill:#92E3A9;stroke:#263238;stroke-linecap:round;stroke-linejoin:round;stroke-miterlimit:10;" d="M481.835,241.348
			l-11.076,24.78c0,0-31.35-12.014-38.296-19.899c-6.946-7.885-0.188-20.838,5.632-23.278
			C443.914,220.511,481.835,241.348,481.835,241.348z"/>
		<path style="fill:#263238;stroke:#263238;stroke-linecap:round;stroke-linejoin:round;stroke-miterlimit:10;" d="M461.561,217.695
			l-5.82-5.069l-0.188,8.072C455.553,220.698,459.308,217.319,461.561,217.695z"/>
	</g>
</g>
<g id="Character_1">
	<g>
		<path style="fill:#FFFFFF;stroke:#263238;stroke-linecap:round;stroke-linejoin:round;stroke-miterlimit:10;" d="M100.501,211.195
			l-16.359,6.255l-9.382,60.143c0,0-1.684,9.382-1.684,12.029s2.646,4.33,2.646,4.33l5.533,0.481c0,0,0.962,0.722,2.406,0.722
			c1.444,0,2.165-0.481,2.406-1.925c0.241-1.443,2.887-4.811,3.368-7.698c0.481-2.887-5.293-12.269-5.293-12.269l14.194-44.025
			l4.811-0.962L100.501,211.195z"/>
		<path style="fill:#263238;stroke:#263238;stroke-linecap:round;stroke-linejoin:round;stroke-miterlimit:10;" d="M119.747,306.942
			l-11.548,48.596l-52.204,37.048c0,0-16.599,0.722-18.043,2.406c-1.443,1.684-1.684,8.661-1.684,9.863
			c0,1.203-3.368,7.698-4.33,10.826c-0.962,3.127-0.722,8.42-0.481,10.826c0.241,2.406,0.722,5.052,2.646,4.571
			c1.925-0.481,5.293-7.698,5.293-7.698l19.246-17.802c0,0,53.554-26.26,57.403-28.426c3.849-2.165,26.557-18.486,27.76-20.651
			c1.203-2.165,16.84-45.949,16.84-45.949L119.747,306.942z"/>
		<g>
			<path style="fill:#92E3A9;stroke:#263238;stroke-linecap:round;stroke-linejoin:round;stroke-miterlimit:10;" d="
				M178.446,197.963c0,0-27.906-4.571-30.793-3.128c-2.887,1.443-45.468,15.878-45.468,15.878l3.609,16.359l38.01-6.255
				c0,0-19.967,50.761-20.689,53.166c-0.722,2.406-2.646,3.368,0.481,4.812c3.127,1.443,50.28,8.179,51.723,5.774
				c1.443-2.406,11.548-26.463,11.548-26.463l25.982-20.208c0,0,44.506-1.925,44.506-4.09c0-2.165,0-6.255-0.962-6.977
				c-0.962-0.722-45.949-18.043-45.949-18.043L178.446,197.963z"/>
			<polygon style="fill:#263238;stroke:#263238;stroke-linecap:round;stroke-linejoin:round;stroke-miterlimit:10;" points="
				187.774,221.152 185.71,229.922 185.71,229.922 162.494,238.177 135.667,233.534 108.839,249.011 98.005,255.718 94.91,269.132 
				109.871,269.648 141.342,242.304 161.462,245.4 189.443,231.13 196.545,223.215 198.224,213.276 			"/>
			
				<line style="fill:none;stroke:#263238;stroke-linecap:round;stroke-linejoin:round;stroke-miterlimit:10;" x1="161.61" y1="224.055" x2="164.974" y2="224.667"/>
			<polyline style="fill:none;stroke:#263238;stroke-linecap:round;stroke-linejoin:round;stroke-miterlimit:10;" points="
				161.606,218.893 143.804,220.817 157.938,223.387 			"/>
			<path style="fill:none;stroke:#263238;stroke-linecap:round;stroke-linejoin:round;stroke-miterlimit:10;" d="M143.649,266.213
				c-2.396,0.589-4.486,1.035-6.1,1.275"/>
			<path style="fill:none;stroke:#263238;stroke-linecap:round;stroke-linejoin:round;stroke-miterlimit:10;" d="M183.498,254.016
				c0,0-20.754,7.062-35.377,11.035"/>
			<path style="fill:none;stroke:#263238;stroke-linecap:round;stroke-linejoin:round;stroke-miterlimit:10;" d="M183.739,259.55
				c0,0-12.269,6.977-15.156,7.939"/>
		</g>
		<path style="fill:#FFFFFF;stroke:#263238;stroke-linecap:round;stroke-linejoin:round;stroke-miterlimit:10;" d="M232.334,233.808
			c0,0,6.014-8.179,7.217-9.142c1.203-0.962,13.713-3.609,16.84-1.684c3.128,1.925,6.495,7.698,6.495,10.585
			c0,2.887-4.571,6.736-5.774,6.977C255.91,240.785,232.334,233.808,232.334,233.808z"/>
		<g>
			<path style="fill:#FFFFFF;stroke:#263238;stroke-linecap:round;stroke-linejoin:round;stroke-miterlimit:10;" d="
				M223.975,169.873c0,0,1.869,6.23,1.869,10.591s-2.077,6.853-2.077,8.93c0,2.077,2.492,9.76,1.454,10.591
				c-1.038,0.831-5.607,1.246-5.607,1.246s-3.738,10.383-6.23,11.007c-2.492,0.623-7.476-1.869-8.099-2.077
				c-0.623-0.208-13.706,7.061-13.706,7.061l-6.853-22.844l4.153-6.646c0,0-6.438-20.144-4.776-27.62
				c1.661-7.476,21.182-3.738,21.182-3.738s-0.831-3.738,1.869-3.738c2.7,0,5.815,2.7,5.815,2.7s-0.208-5.815,4.984-3.323
				c5.192,2.492,6.853,8.514,6.853,8.514s4.777-5.607,5.192-0.623C230.413,164.889,223.975,169.873,223.975,169.873z"/>
			<path style="fill:#263238;stroke:#263238;stroke-linecap:round;stroke-linejoin:round;stroke-miterlimit:10;" d="
				M229.997,159.904c-0.415-4.984-5.192,0.623-5.192,0.623s-1.661-6.022-6.853-8.514c-5.192-2.492-4.984,3.323-4.984,3.323
				s-3.115-2.7-5.815-2.7c-2.7,0-1.869,3.738-1.869,3.738s-19.521-3.738-21.182,3.738c-1.608,7.236,4.37,26.335,4.756,27.557
				c2.904-1.995,6.506-4.469,6.873-4.713c0.623-0.415,4.569-0.831,6.022-2.284c1.454-1.454-0.623-4.776-0.623-4.776
				s8.514-2.284,9.76-3.738c1.246-1.454-1.246-4.984,0-7.061c1.246-2.077,13.083,4.776,13.083,4.776
				S230.413,164.889,229.997,159.904z"/>
			<path style="fill:#FFFFFF;stroke:#263238;stroke-linecap:round;stroke-linejoin:round;stroke-miterlimit:10;" d="
				M199.707,184.873c0,0-2.048-9.216-6.144-6.827c-4.096,2.389-4.779,8.875-2.731,11.605c2.048,2.731,5.803,1.707,5.803,1.707"/>
			<path style="fill:#263238;" d="M218.932,187.488c-0.418,1.311-1.288,2.205-1.944,1.996c-0.656-0.209-0.848-1.441-0.43-2.753
				c0.418-1.311,1.288-2.205,1.944-1.996C219.157,184.944,219.35,186.176,218.932,187.488z"/>
			<path style="fill:none;stroke:#263238;stroke-linecap:round;stroke-linejoin:round;stroke-miterlimit:10;" d="M215.668,181.295
				c0,0,4.776-0.415,6.23,2.7"/>
			<path style="fill:none;stroke:#263238;stroke-linecap:round;stroke-linejoin:round;stroke-miterlimit:10;" d="M216.707,201.439
				c0,0-3.115-0.208-4.776-4.153"/>
			<polygon style="fill:#263238;stroke:#263238;stroke-linecap:round;stroke-linejoin:round;stroke-miterlimit:10;" points="
				205.285,210.161 197.393,203.515 198.224,213.276 			"/>
		</g>
		<polygon style="fill:#FFFFFF;stroke:#263238;stroke-linecap:round;stroke-linejoin:round;stroke-miterlimit:10;" points="
			183.498,191.468 176.521,197.001 183.498,226.591 193.843,215.765 		"/>
		<polygon style="fill:#FFFFFF;stroke:#263238;stroke-linecap:round;stroke-linejoin:round;stroke-miterlimit:10;" points="
			193.843,215.765 195.046,227.553 201.541,212.638 		"/>
		<g>
			<path style="fill:#FFFFFF;stroke:#263238;stroke-linecap:round;stroke-linejoin:round;stroke-miterlimit:10;" d="
				M197.692,236.455l-5.052,5.052c0,0,0.241,5.052,1.443,5.774c1.203,0.722,6.977,5.052,7.939,3.609
				c0.962-1.444-2.887-7.458-2.887-7.458l1.684-6.255L197.692,236.455z"/>
			<g>
				<path style="fill:#FFFFFF;stroke:#263238;stroke-linecap:round;stroke-linejoin:round;stroke-miterlimit:10;" d="
					M249.896,227.553l-31.515,8.42c0,0-15.156-6.495-16.84-6.495c-1.684,0-6.014,12.269-5.293,13.232
					c0.722,0.962,5.774,3.368,5.774,3.368s12.75,3.849,14.675,3.128c1.925-0.722,5.774-3.128,5.774-3.128s28.628-1.925,32.477-3.368
					c3.849-1.443,7.698-4.09,6.496-7.458C260.241,231.884,254.226,227.553,249.896,227.553z"/>
				
					<line style="fill:none;stroke:#263238;stroke-linecap:round;stroke-linejoin:round;stroke-miterlimit:10;" x1="204.187" y1="232.605" x2="202.022" y2="246.077"/>
				
					<line style="fill:none;stroke:#263238;stroke-linecap:round;stroke-linejoin:round;stroke-miterlimit:10;" x1="209.48" y1="235.733" x2="208.277" y2="247.04"/>
				
					<line style="fill:none;stroke:#263238;stroke-linecap:round;stroke-linejoin:round;stroke-miterlimit:10;" x1="214.532" y1="239.101" x2="212.848" y2="248.002"/>
			</g>
		</g>
		<polygon style="fill:#FFFFFF;stroke:#263238;stroke-linecap:round;stroke-linejoin:round;stroke-miterlimit:10;" points="
			98.576,209.27 102.906,231.162 114.213,229.478 111.086,206.383 		"/>
		<path style="fill:#263238;stroke:#263238;stroke-linecap:round;stroke-linejoin:round;stroke-miterlimit:10;" d="M122.633,276.63
			c0,0-5.774,7.698-6.255,12.269c-0.481,4.571,1.203,19.246,3.368,21.651c2.165,2.406,4.09,5.293,14.675,6.014
			c10.585,0.722,42.929-0.328,42.929-0.328l-44.801,40.478c0,0-3.421,1.95-5.586,2.912c-2.165,0.962-8.901,2.165-9.142,6.496
			c-0.241,4.33,4.571,18.524,5.052,21.411c0.481,2.887,6.736,13.953,8.179,13.472c1.443-0.481,3.127-2.646,3.127-4.571
			c0-1.925-0.24-4.33,0-6.736c0.241-2.406,0.241-4.811,0.722-5.774c0.481-0.962,5.052-14.434,5.052-14.434
			s17.699-11.877,20.104-13.561c2.406-1.684,24.837-14.766,37.727-25.938c13.102-11.355,21.503-20.54,23.187-23.187
			c1.684-2.646,4.893-6.917,1.044-12.931c-3.849-6.014-29.136-10.508-29.136-10.508s-44.987-4.571-47.393-4.33
			c-2.406,0.241-15.878,0.481-15.878,0.481L122.633,276.63z"/>
	</g>
</g>
<g id="Character_2">
	<g>
		<g>
			<path style="fill:#FFFFFF;stroke:#263238;stroke-linecap:round;stroke-linejoin:round;stroke-miterlimit:10;" d="
				M230.572,252.958c0,0-9.328,1.588-9.923,2.382c-0.595,0.794-21.434,49.616-21.434,49.616s-5.755,9.129-5.557,10.717
				c0.199,1.588,0.794,9.328,2.382,9.526c1.588,0.198,11.114-2.977,12.702-4.366c1.588-1.389,1.786-8.137,0.992-9.328
				c-0.794-1.191-3.175-4.763-3.175-5.358s24.014-33.143,24.014-33.143V252.958z"/>
			<path style="fill:#FFFFFF;stroke:#263238;stroke-linecap:round;stroke-linejoin:round;stroke-miterlimit:10;" d="
				M203.383,312.099c0,0-0.992,3.175-0.397,3.771c0.595,0.595,3.175,0,3.175,0s-6.152,6.748-4.168,5.755
				c1.985-0.992,6.549-2.58,7.74-5.755c1.191-3.175-1.588-5.755-1.588-5.755"/>
			<path style="fill:#FFFFFF;stroke:#263238;stroke-linecap:round;stroke-linejoin:round;stroke-miterlimit:10;" d="
				M204.772,316.267l-7.74,2.58c0,0-1.191,0.992-0.595,1.588c0.595,0.595,0.397,1.588,0.397,1.588"/>
		</g>
		<path style="fill:#92E3A9;stroke:#263238;stroke-linecap:round;stroke-linejoin:round;stroke-miterlimit:10;" d="M278.402,244.622
			c0,0-6.549-0.794-9.328-0.595c-2.779,0.198-40.486,8.137-40.486,8.137l1.985,20.839l29.372-4.962L278.402,244.622z"/>
		<g>
			<path style="fill:#92E3A9;stroke:#263238;stroke-linecap:round;stroke-linejoin:round;stroke-miterlimit:10;" d="
				M288.523,238.867c0,0-12.9,5.16-18.457,10.121c-5.557,4.962-37.708,49.02-37.708,49.02l30.762,17.663
				c0,0,30.365-16.869,32.548-21.434c2.183-4.565,2.778-27.586,2.778-27.586L288.523,238.867z"/>
			<path style="fill:none;stroke:#263238;stroke-linecap:round;stroke-linejoin:round;stroke-miterlimit:10;" d="M263.08,280.128
				c8.744-0.982,21.673-2.437,21.673-2.437l-18.074,8.215"/>
			<path style="fill:none;stroke:#263238;stroke-linecap:round;stroke-linejoin:round;stroke-miterlimit:10;" d="M255.507,280.978
				c0.535-0.06,1.836-0.205,3.606-0.404"/>
			
				<line style="fill:none;stroke:#263238;stroke-linecap:round;stroke-linejoin:round;stroke-miterlimit:10;" x1="240.719" y1="301.352" x2="260.108" y2="298.066"/>
		</g>
		<path style="fill:#FFFFFF;stroke:#263238;stroke-linecap:round;stroke-linejoin:round;stroke-miterlimit:10;" d="M336.75,229.341
			c0,0-0.794,4.565-1.985,6.549c-1.191,1.985-3.771,4.168-3.771,5.359c0,1.191,1.786,5.16,0.595,6.152
			c-1.191,0.992-5.755,1.985-5.755,1.985s-5.16,6.549-7.939,7.938c-2.778,1.389-9.328-5.16-9.328-5.16l-9.923,5.16l-5.16-18.06
			l4.168-1.985c0,0-0.595-7.938,1.389-12.503c1.985-4.565,14.885-11.511,27.983-9.725
			C340.124,216.837,336.75,229.341,336.75,229.341z"/>
		<polygon style="fill:#263238;stroke:#263238;stroke-linecap:round;stroke-linejoin:round;stroke-miterlimit:10;" points="
			308.568,252.164 304.687,246.661 303.204,255.258 		"/>
		<path style="fill:none;stroke:#263238;stroke-linecap:round;stroke-linejoin:round;stroke-miterlimit:10;" d="M331.514,237.399
			c-0.651-4.126-4.777-3.909-4.777-3.909"/>
		<path style="fill:#263238;stroke:#263238;stroke-linecap:round;stroke-linejoin:round;stroke-miterlimit:10;" d="M336.75,229.341
			c0,0,0.198-4.168-0.397-5.16c-0.595-0.992-9.129-3.572-12.503-0.992s-4.168,4.962-9.129,6.152c-4.962,1.191-6.748,0-6.748,0
			s-1.588-4.763-4.961-2.977c-3.374,1.786-3.175,5.954-2.382,7.343c0.794,1.389,1.588,2.779,1.588,2.779l-4.565,0.794
			c0,0-5.755-12.106-5.755-19.846c0-7.74,14.686-16.472,22.823-16.869c8.137-0.397,13.694,4.763,13.694,4.763
			s8.335-5.954,12.9-2.977s4.962,10.717,4.168,12.9c-0.794,2.183,3.969,3.374,1.588,9.923
			C344.688,231.722,340.322,233.905,336.75,229.341z"/>
		<path style="fill:#263238;stroke:#263238;stroke-linecap:round;stroke-linejoin:round;stroke-miterlimit:10;" d="M308.171,201.556
			c0,0,1.786-7.145-0.397-11.312c-2.183-4.168-27.785,1.389-29.968,11.709c-2.183,10.32,13.892,12.701,13.892,12.701
			S297.454,206.12,308.171,201.556z"/>
		<path style="fill:none;stroke:#263238;stroke-linecap:round;stroke-linejoin:round;stroke-miterlimit:10;" d="M317.499,242.042
			c0,0,0.595,4.366,3.175,5.756"/>
		<path style="fill:#263238;" d="M327.471,240.338c-0.665,1.198-1.671,1.91-2.246,1.59c-0.575-0.319-0.502-1.549,0.164-2.747
			c0.665-1.198,1.671-1.91,2.246-1.59C328.209,237.911,328.136,239.14,327.471,240.338z"/>
		<polygon style="fill:#FFFFFF;stroke:#263238;stroke-linecap:round;stroke-linejoin:round;stroke-miterlimit:10;" points="
			294.477,235.691 302.019,260.698 297.057,268.835 288.523,238.867 		"/>
		<path style="fill:#FFFFFF;stroke:#263238;stroke-linecap:round;stroke-linejoin:round;stroke-miterlimit:10;" d="M318.293,287.689
			l39.097-29.571c0,0,0.595-9.923,1.389-11.908c0.794-1.985,6.152-1.985,6.152-1.985s4.763-5.358,6.351-4.763
			c1.588,0.595,1.389,2.977,1.389,2.977s7.145,10.915,4.962,14.289c-2.183,3.374-14.091,6.946-14.091,6.946
			s-36.517,43.265-39.097,44.654c-2.58,1.389-12.503-4.962-12.503-4.962L318.293,287.689z"/>
		<path style="fill:#92E3A9;stroke:#263238;stroke-linecap:round;stroke-linejoin:round;stroke-miterlimit:10;" d="M319.285,286.498
			c0,0-24.014-24.212-28.38-26.792c-4.366-2.58-12.305-0.992-15.083,6.549c-2.778,7.542,33.342,44.456,33.342,44.456
			L319.285,286.498z"/>
		<path style="fill:#263238;stroke:#263238;stroke-linecap:round;stroke-linejoin:round;stroke-miterlimit:10;" d="M232.359,298.009
			c0,0-19.437,21.183-22.253,29.631c-2.816,8.448-13.141,59.447-13.141,59.447l-47.871,66.33c0,0-10.638,10.325-9.699,12.202
			c0.939,1.877,11.264,14.08,17.521,16.27c6.258,2.19,7.509,1.252,6.57-0.313s-5.632-18.147-5.632-19.711c0-1.564,0-1.564,0-1.564
			s56.944-53.503,59.447-57.57c2.503-4.067,24.717-45.368,24.717-45.368l46.619,13.767l-55.38,20.024c0,0-4.38-3.754-5.945-2.19
			c-1.564,1.564-3.129,10.638-3.754,11.889c-0.626,1.251-2.503,10.012-2.816,12.828c-0.313,2.816,0.939,7.196,1.877,6.883
			c0.939-0.313,7.509-8.135,7.509-8.135l17.834-16.896c0,0,65.705-12.202,71.649-15.644c5.945-3.442,8.761-8.448,7.509-12.515
			c-1.252-4.067-32.852-25.03-40.674-30.036c-7.822-5.006-22.215-17.208-22.215-17.208l-1.114-4.459L232.359,298.009z"/>
	</g>
</g>
</svg>
