<?xml version="1.0" encoding="utf-8"?>
<!-- Generator: Adobe Illustrator 27.5.0, SVG Export Plug-In . SVG Version: 6.00 Build 0)  -->
<svg version="1.1" xmlns="http://www.w3.org/2000/svg" xmlns:xlink="http://www.w3.org/1999/xlink" x="0px" y="0px"
	 viewBox="0 0 500 500" style="enable-background:new 0 0 500 500;" xml:space="preserve">
<g id="Background_Simple">
	<g>
		<path style="opacity:0.7;fill:#FFFFFF;" d="M67.931,167.086c0,0-27.877,71.988,11.297,144.503
			c39.174,72.516,119.879,110.802,184.469,143.548c64.59,32.746,131.661,16.799,163.534-36.838
			c31.873-53.637-11.845-91.928-11.897-168.418c-0.051-76.49,11.447-96.742-29.963-161.364
			c-41.41-64.623-143.059-78.925-219.9-30.996C88.631,105.45,67.931,167.086,67.931,167.086z"/>
	</g>
	<g>
		<path style="fill:#92E3A9;" d="M435.414,208.929c-18.192-20.118-48.67-22.37-72.371-35.558
			c-40.79-22.696-56.604-74.39-93.712-102.709c-23.433-17.882-55.092-24.814-83.405-20.894c-40.189,5.564-78.005,32.5-89.357,71.962
			c-3.15,10.951-4.411,22.826-3.44,35.411c1.817,23.55,6.882,47.403,2.104,70.533c-5.267,25.493-21.854,47.017-31.764,71.088
			c-12.338,29.968-14.037,63.605-8.761,95.581c3.6,21.819,10.776,43.845,25.759,60.109c1.132,1.228,2.311,2.401,3.513,3.548h163.609
			c10.264-13.089,18.045-28.58,27.074-42.324c22.721-34.585,59.096-59.243,98.828-70.809c17.799-5.181,37.082-8.265,51.384-20.059
			c14.716-12.135,21.476-31.496,24.402-50.344C452.821,251.641,450.904,226.06,435.414,208.929z"/>
		<path style="opacity:0.7;fill:#FFFFFF;" d="M435.414,208.929c-18.192-20.118-48.67-22.37-72.371-35.558
			c-40.79-22.696-56.604-74.39-93.712-102.709c-23.433-17.882-55.092-24.814-83.405-20.894c-40.189,5.564-78.005,32.5-89.357,71.962
			c-3.15,10.951-4.411,22.826-3.44,35.411c1.817,23.55,6.882,47.403,2.104,70.533c-5.267,25.493-21.854,47.017-31.764,71.088
			c-12.338,29.968-14.037,63.605-8.761,95.581c3.6,21.819,10.776,43.845,25.759,60.109c1.132,1.228,2.311,2.401,3.513,3.548h163.609
			c10.264-13.089,18.045-28.58,27.074-42.324c22.721-34.585,59.096-59.243,98.828-70.809c17.799-5.181,37.082-8.265,51.384-20.059
			c14.716-12.135,21.476-31.496,24.402-50.344C452.821,251.641,450.904,226.06,435.414,208.929z"/>
	</g>
</g>
<g id="Chair">
	<g>
		<polyline style="fill:none;stroke:#263238;stroke-linecap:round;stroke-linejoin:round;stroke-miterlimit:10;" points="
			206.42,353.099 191.525,458 185.959,458 194.187,353.099 		"/>
		<polyline style="fill:none;stroke:#263238;stroke-linecap:round;stroke-linejoin:round;stroke-miterlimit:10;" points="
			252.959,353.099 267.854,458 273.42,458 265.193,353.099 		"/>
		<polyline style="fill:none;stroke:#263238;stroke-linecap:round;stroke-linejoin:round;stroke-miterlimit:10;" points="
			171.42,353.099 156.525,458 150.96,458 159.187,353.099 		"/>
		<polyline style="fill:none;stroke:#263238;stroke-linecap:round;stroke-linejoin:round;stroke-miterlimit:10;" points="
			216.959,353.099 231.854,458 237.42,458 229.193,353.099 		"/>
		<path style="fill:none;stroke:#263238;stroke-linecap:round;stroke-linejoin:round;stroke-miterlimit:10;" d="M261.724,349.296
			H159.15c-9.051,0-16.388-7.337-16.388-16.388l0,0c0-2.5,2.027-4.527,4.527-4.527h126.296c2.5,0,4.527,2.027,4.527,4.527l0,0
			C278.112,341.959,270.775,349.296,261.724,349.296z"/>
		
			<line style="fill:none;stroke:#263238;stroke-linecap:round;stroke-linejoin:round;stroke-miterlimit:10;" x1="145.098" y1="341.344" x2="179.176" y2="341.344"/>
		<path style="fill:none;stroke:#263238;stroke-linecap:round;stroke-linejoin:round;stroke-miterlimit:10;" d="M184.725,328.381
			c-5.275,0-1.582,20.915,12.396,20.915"/>
		
			<line style="fill:none;stroke:#263238;stroke-linecap:round;stroke-linejoin:round;stroke-miterlimit:10;" x1="184.871" y1="341.344" x2="193.681" y2="341.344"/>
		
			<line style="fill:none;stroke:#263238;stroke-linecap:round;stroke-linejoin:round;stroke-miterlimit:10;" x1="198.692" y1="341.344" x2="203.289" y2="341.344"/>
		
			<line style="fill:none;stroke:#263238;stroke-linecap:round;stroke-linejoin:round;stroke-miterlimit:10;" x1="210.437" y1="341.344" x2="275.777" y2="341.344"/>
		<polyline style="fill:none;stroke:#263238;stroke-linecap:round;stroke-linejoin:round;stroke-miterlimit:10;" points="
			145.098,324.758 137.505,270.813 144.986,270.813 152.802,328.381 		"/>
		<polyline style="fill:none;stroke:#263238;stroke-linecap:round;stroke-linejoin:round;stroke-miterlimit:10;" points="
			171.365,324.758 163.772,270.813 171.253,270.813 179.068,328.381 		"/>
		<polyline style="fill:none;stroke:#263238;stroke-linecap:round;stroke-linejoin:round;stroke-miterlimit:10;" points="
			197.631,324.758 190.038,270.813 197.519,270.813 205.335,328.381 		"/>
		<path style="fill:none;stroke:#263238;stroke-linecap:round;stroke-linejoin:round;stroke-miterlimit:10;" d="M196.617,270.165
			H135.5c-4.267,0-8.235-3.46-8.863-7.727l-3.899-26.488c-0.628-4.268,2.322-7.727,6.588-7.727h61.117
			c4.267,0,8.235,3.46,8.863,7.727l3.899,26.488C203.833,266.705,200.884,270.165,196.617,270.165z"/>
		
			<line style="fill:none;stroke:#263238;stroke-linecap:round;stroke-linejoin:round;stroke-miterlimit:10;" x1="195.099" y1="267.396" x2="196.978" y2="267.396"/>
		
			<line style="fill:none;stroke:#263238;stroke-linecap:round;stroke-linejoin:round;stroke-miterlimit:10;" x1="182.242" y1="267.396" x2="191.44" y2="267.396"/>
		<path style="fill:none;stroke:#263238;stroke-linecap:round;stroke-linejoin:round;stroke-miterlimit:10;" d="M126.236,239.7
			l3.144,20.822c0.597,3.952,3.993,6.874,7.99,6.874h42.795"/>
		
			<line style="fill:none;stroke:#263238;stroke-linecap:round;stroke-linejoin:round;stroke-miterlimit:10;" x1="125.496" y1="234.799" x2="125.883" y2="237.368"/>
	</g>
	
		<line style="fill:none;stroke:#263238;stroke-linecap:round;stroke-linejoin:round;stroke-miterlimit:10;" x1="72.659" y1="458" x2="427.341" y2="458"/>
</g>
<g id="Bubble">
	<g>
		<g>
			<path style="fill:#263238;" d="M206.638,114.51c-0.149-0.449-0.225-0.935-0.225-1.609c0-2.095,0.524-3.629,2.133-5.911
				c1.833-2.619,2.357-4.34,2.357-6.847c0-1.871-0.748-2.582-2.058-2.582s-2.058,0.711-2.058,2.582v2.844h-3.891v-2.582
				c0-4.19,2.058-6.585,6.061-6.585c4.003,0,6.061,2.395,6.061,6.585c0,2.806-0.748,4.826-2.769,7.52
				c-1.609,2.17-2.095,3.442-2.095,5.126c0,0.486,0.037,0.973,0.149,1.459H206.638z M210.416,116.344v3.966h-3.966v-3.966H210.416z"
				/>
		</g>
		<path style="fill:none;stroke:#263238;stroke-linecap:round;stroke-linejoin:round;stroke-miterlimit:10;" d="M225.73,133.362
			l8.946,4.911l-5.365-9.835c4.842-3.687,8.293-8.71,9.549-14.409"/>
		<path style="fill:none;stroke:#263238;stroke-linecap:round;stroke-linejoin:round;stroke-miterlimit:10;" d="M213.37,134.646
			c3.526-0.375,6.858-1.292,9.893-2.639"/>
		<path style="fill:none;stroke:#263238;stroke-linecap:round;stroke-linejoin:round;stroke-miterlimit:10;" d="M180.182,109.229
			c0,14.142,13.252,25.606,29.6,25.606"/>
		<path style="fill:none;stroke:#263238;stroke-linecap:round;stroke-linejoin:round;stroke-miterlimit:10;" d="M185.638,94.413
			c-0.842,1.025-1.599,2.106-2.262,3.236"/>
		<path style="fill:none;stroke:#263238;stroke-linecap:round;stroke-linejoin:round;stroke-miterlimit:10;" d="M239.383,109.229
			c0-14.142-13.252-25.606-29.6-25.606c-7.9,0-15.078,2.678-20.386,7.041"/>
	</g>
</g>
<g id="Character">
	<g>
		<g>
			<path style="fill:#263238;" d="M244.217,217.868c-28.414,7.284-39.312,27.818-40.797,45.099
				c-1.791,20.835,15.42,75.935,15.615,83.414c0.967,37.048,12.668,54.908,14.769,83.149h15.028h12.696
				c0,0,3.415-74.637,5.516-83.149c2.101-8.513,9.904-53.651,11.694-77.466c2.813-37.413-9.731-49.201-9.731-49.201
				C257.013,209.692,244.217,217.868,244.217,217.868z"/>
			<path style="fill:none;stroke:#FFFFFF;stroke-linecap:round;stroke-linejoin:round;stroke-miterlimit:10;" d="M262.5,261.457
				c0,0-5.658,6.455-15.333,11.202c0,0,1.522,60.725-0.382,66.264c-1.904,5.538-4.287,11.895,2.048,90.607"/>
			<g>
				<g>
					<defs>
						<path id="XMLID_401_" d="M245.288,423.385c0,0,5.538-3.956,17.011-3.165c0,0,0.831,13.752,2.393,17.755
							c1.563,4.003,9.784,10.926,11.311,12.113s1.527,5.341,1.527,5.341h-34.813c0,0,0.593-9.204,2.769-17.657L245.288,423.385z"/>
					</defs>
					<use xlink:href="#XMLID_401_"  style="overflow:visible;fill:#FFFFFF;"/>
					<clipPath id="XMLID_00000045621280978483828270000013453452686737835189_">
						<use xlink:href="#XMLID_401_"  style="overflow:visible;"/>
					</clipPath>
					
						<use xlink:href="#XMLID_401_"  style="overflow:visible;fill:none;stroke:#263238;stroke-linecap:round;stroke-linejoin:round;stroke-miterlimit:10;"/>
				</g>
				<path style="fill:none;stroke:#263238;stroke-linecap:round;stroke-linejoin:round;stroke-miterlimit:10;" d="M252.475,425.165
					c0,0,0.823,12.659,2.785,15.956c1.962,3.297,3.86,5.011,3.86,5.011"/>
				<path style="fill:#92E3A9;stroke:#263238;stroke-linecap:round;stroke-linejoin:round;stroke-miterlimit:10;" d="
					M260.123,447.912c0,0,1.747,2.176,3.692,2.473c1.945,0.297,12.188-0.297,12.188-0.297l-4.177-3.611
					C271.826,446.477,263.288,445.044,260.123,447.912z"/>
				<path style="fill:none;stroke:#263238;stroke-linecap:round;stroke-linejoin:round;stroke-miterlimit:10;" d="M256.464,444.945
					c0,0,7.423-4.266,12.711-1.045"/>
				<path style="fill:none;stroke:#263238;stroke-linecap:round;stroke-linejoin:round;stroke-miterlimit:10;" d="M254.674,442.049
					c0,0,5.182-4.05,11.295-1.827"/>
				<path style="fill:none;stroke:#263238;stroke-linecap:round;stroke-linejoin:round;stroke-miterlimit:10;" d="M252.475,437.637
					c0,0,5.576-4.333,11.458-1.573"/>
				<path style="fill:none;stroke:#263238;stroke-linecap:round;stroke-linejoin:round;stroke-miterlimit:10;" d="M251.717,432.128
					c0,0,6.764-3.638,11.69-0.879"/>
				<path style="fill:#92E3A9;stroke:#263238;stroke-linecap:round;stroke-linejoin:round;stroke-miterlimit:10;" d="
					M242.717,455.429V458h3.988c0,0,3.429-1.978,6.693,0c0,0,15.527,0,18.791,0c3.264,0,5.736-1.286,5.736-1.286l-0.396-1.286
					H242.717z"/>
				<path style="fill:#92E3A9;stroke:#263238;stroke-linecap:round;stroke-linejoin:round;stroke-miterlimit:10;" d="
					M247.705,422.595l0.891,5.603c0,0,10.449-3.388,16.22-1.187v-6.896C264.816,420.115,254.067,416.333,247.705,422.595z"/>
				<path style="fill:#92E3A9;stroke:#263238;stroke-linecap:round;stroke-linejoin:round;stroke-miterlimit:10;" d="
					M245.486,437.772c0,0,0.033,6.257,3.791,8.347c3.758,2.09,7.982,4.307,8.441,9.281l-3.045,0.029c0,0,0.966-2.702-2.957-4.961
					c-3.923-2.259-6.111-3.663-7.426-7.229L245.486,437.772z"/>
			</g>
			<g>
				<g>
					<defs>
						<path id="XMLID_400_" d="M232.288,423.385c0,0,5.538-3.956,17.011-3.165c0,0,0.831,13.752,2.393,17.755
							s9.784,10.926,11.311,12.113s1.527,5.341,1.527,5.341h-34.813c0,0,0.593-9.204,2.769-17.657L232.288,423.385z"/>
					</defs>
					<use xlink:href="#XMLID_400_"  style="overflow:visible;fill:#FFFFFF;"/>
					<clipPath id="XMLID_00000127749455037248291090000008943156044591466149_">
						<use xlink:href="#XMLID_400_"  style="overflow:visible;"/>
					</clipPath>
					
						<use xlink:href="#XMLID_400_"  style="overflow:visible;fill:none;stroke:#263238;stroke-linecap:round;stroke-linejoin:round;stroke-miterlimit:10;"/>
				</g>
				<path style="fill:none;stroke:#263238;stroke-linecap:round;stroke-linejoin:round;stroke-miterlimit:10;" d="M239.475,425.165
					c0,0,0.823,12.659,2.785,15.956c1.962,3.297,3.859,5.011,3.859,5.011"/>
				<path style="fill:#92E3A9;stroke:#263238;stroke-linecap:round;stroke-linejoin:round;stroke-miterlimit:10;" d="
					M247.123,447.912c0,0,1.747,2.176,3.692,2.473c1.945,0.297,12.188-0.297,12.188-0.297l-4.177-3.611
					C258.826,446.477,250.288,445.044,247.123,447.912z"/>
				<path style="fill:none;stroke:#263238;stroke-linecap:round;stroke-linejoin:round;stroke-miterlimit:10;" d="M243.464,444.945
					c0,0,7.423-4.266,12.711-1.045"/>
				<path style="fill:none;stroke:#263238;stroke-linecap:round;stroke-linejoin:round;stroke-miterlimit:10;" d="M241.674,442.049
					c0,0,5.182-4.05,11.294-1.827"/>
				<path style="fill:none;stroke:#263238;stroke-linecap:round;stroke-linejoin:round;stroke-miterlimit:10;" d="M239.475,437.637
					c0,0,5.576-4.333,11.458-1.573"/>
				<path style="fill:none;stroke:#263238;stroke-linecap:round;stroke-linejoin:round;stroke-miterlimit:10;" d="M238.717,432.128
					c0,0,6.764-3.638,11.69-0.879"/>
				<path style="fill:#92E3A9;stroke:#263238;stroke-linecap:round;stroke-linejoin:round;stroke-miterlimit:10;" d="
					M229.717,455.429V458h3.988c0,0,3.429-1.978,6.693,0c0,0,15.527,0,18.791,0c3.264,0,5.736-1.286,5.736-1.286l-0.396-1.286
					H229.717z"/>
				<path style="fill:#92E3A9;stroke:#263238;stroke-linecap:round;stroke-linejoin:round;stroke-miterlimit:10;" d="
					M234.705,422.595l0.891,5.603c0,0,10.449-3.388,16.22-1.187v-6.896C251.816,420.115,241.067,416.333,234.705,422.595z"/>
				<path style="fill:#92E3A9;stroke:#263238;stroke-linecap:round;stroke-linejoin:round;stroke-miterlimit:10;" d="
					M232.486,437.772c0,0,0.033,6.257,3.791,8.347c3.758,2.09,7.982,4.307,8.441,9.281l-3.045,0.029c0,0,0.966-2.702-2.957-4.961
					c-3.923-2.259-6.111-3.663-7.426-7.229L232.486,437.772z"/>
			</g>
			<path style="fill:none;stroke:#FFFFFF;stroke-linecap:round;stroke-linejoin:round;stroke-miterlimit:10;" d="M213.2,258.418
				c-8.494,14.505,5.22,69.363,9.703,84.132c0,0-0.543,20.151,2.622,30.964c3.165,10.813,9.179,43.409,9.179,43.409"/>
			<path style="fill:none;stroke:#FFFFFF;stroke-linecap:round;stroke-linejoin:round;stroke-miterlimit:10;" d="M257.981,353.099
				c0,0,3.068-0.139,6.066-3.429"/>
			<path style="fill:none;stroke:#FFFFFF;stroke-linecap:round;stroke-linejoin:round;stroke-miterlimit:10;" d="M230.816,345.494
				c0,0-0.527,5.232,5.275,7.605"/>
			<path style="fill:none;stroke:#FFFFFF;stroke-linecap:round;stroke-linejoin:round;stroke-miterlimit:10;" d="M250.475,274.242
				c0,0,7.072,0.527,12.431-3.429"/>
			<path style="fill:none;stroke:#FFFFFF;stroke-linecap:round;stroke-linejoin:round;stroke-miterlimit:10;" d="M233.447,262.332
				c0,0,6.863,2.458,9.501,6.789"/>
			<path style="fill:none;stroke:#FFFFFF;stroke-linecap:round;stroke-linejoin:round;stroke-miterlimit:10;" d="M242.948,272.539
				c0,0-8.176,0.163-14.769-3.419"/>
			<path style="fill:none;stroke:#FFFFFF;stroke-linecap:round;stroke-linejoin:round;stroke-miterlimit:10;" d="M256.842,246.984
				c0,0-3.242,15.917-7.777,20.664"/>
			<path style="fill:none;stroke:#FFFFFF;stroke-linecap:round;stroke-linejoin:round;stroke-miterlimit:10;" d="M233.447,240.739
				c0,0-3.86,12.32-13.444,10.816"/>
			<path style="fill:none;stroke:#FFFFFF;stroke-linecap:round;stroke-linejoin:round;stroke-miterlimit:10;" d="M273.116,244.113
				c0,0,1.743,10.061,4.645,10.073"/>
		</g>
		<g>
			<defs>
				<path id="XMLID_406_" d="M308.76,238.95c-3.54-1.22-5.77-8.51-7.48-16.41c-1.18-5.47-2.12-11.23-3.07-15.47
					c-0.46-2.04-0.92-3.73-1.41-4.87l8.7-29.45c5.33,1.98,10.43,38.13,12.45,50.63C320.04,236.3,315.71,241.32,308.76,238.95z"/>
			</defs>
			<use xlink:href="#XMLID_406_"  style="overflow:visible;fill:#FFFFFF;"/>
			<clipPath id="XMLID_00000161612128564862950010000013041621069955650177_">
				<use xlink:href="#XMLID_406_"  style="overflow:visible;"/>
			</clipPath>
			<path style="opacity:0.4;clip-path:url(#XMLID_00000161612128564862950010000013041621069955650177_);fill:#92E3A9;" d="
				M305.97,219.92c-1,2.12-2.75,2.75-4.69,2.62c-1.18-5.47-2.12-11.23-3.07-15.47l4-7.32C302.21,199.75,309.13,213.2,305.97,219.92z
				"/>
			
				<use xlink:href="#XMLID_406_"  style="overflow:visible;fill:none;stroke:#263238;stroke-linecap:round;stroke-linejoin:round;stroke-miterlimit:10;"/>
		</g>
		<path style="fill:#263238;" d="M297.738,124.297c5.879,6.53,12.209,36.372,6.783,49.213c-5.426,12.841-52.268,10.309-56.971,4.883
			c-4.702-5.426,4.702-15.657,2.894-24.829c-1.809-9.172-8.398-32.86,12.712-38.198
			C284.265,110.028,297.738,124.297,297.738,124.297z"/>
		<g>
			<defs>
				<path id="XMLID_404_" d="M231.388,219.87c0,0-0.171-44.613,8.098-51.845c0,0,12.653-7.19,36.916-5.3
					c16.78,1.307,28.743,9.205,28.743,9.205c6.774,14.533-5.077,41.517-16.291,49.103l-10.742,11.299c0,0,1.872,7.183-9.127,10.366
					C246.408,249.232,216.065,236.058,231.388,219.87z"/>
			</defs>
			<use xlink:href="#XMLID_404_"  style="overflow:visible;fill:#92E3A9;"/>
			<clipPath id="XMLID_00000067936950361915220000000017952605316274449804_">
				<use xlink:href="#XMLID_404_"  style="overflow:visible;"/>
			</clipPath>
			<path style="opacity:0.15;clip-path:url(#XMLID_00000067936950361915220000000017952605316274449804_);fill-opacity:0.7;" d="
				M303.39,200c-3.53,9.15-9.11,17.36-14.54,21.03l-10.74,11.3c0,0,0.57,2.18-0.77,4.67c-18.02,6.34-18.25-0.97-18.25-0.97
				c6.49,1.01,20.06-8.99,20.06-8.99s0.11-2.17-4.48-4.72c-4.6-2.56-16.53,1.56-16.53,1.56c5.77,5.54,10.64,4.94,8.64,6.78
				c-2,1.83-7.79-1.03-7.79-1.03s-13.35-4.76-13.55,1.03c-0.2,5.79,3.15,7.86,3.15,7.86c-9.39-1.57-16.88-7.08-21-12.45
				c0.55-1.99,1.78-4.07,3.8-6.2c0,0-0.07-17.51,1.92-32.37l9.64,8.53c-0.71,0.64,0,3.95,0,3.95s4.47,9.26,10.66,13.5
				c6.19,4.24,21.5-1.67,21.5-1.67c4.34,2.57,10.63,1.67,10.63,1.67l3.11-8.35C296.08,208.82,303.03,200.43,303.39,200z"/>
			
				<use xlink:href="#XMLID_404_"  style="overflow:visible;fill:none;stroke:#263238;stroke-linecap:round;stroke-linejoin:round;stroke-miterlimit:10;"/>
		</g>
		<path style="fill:#FFFFFF;stroke:#263238;stroke-linecap:round;stroke-linejoin:round;stroke-miterlimit:10;" d="M255.87,162.296
			c-0.723,4.883,9.229,29.092,21.342,30.927c17.506,2.653,20.191-18.239,18.564-23.122c-1.628-4.883-9.778-0.946-6.921-13.924
			C291.712,143.2,255.87,162.296,255.87,162.296z"/>
		<path style="fill:#263238;" d="M251.285,148.249c0,0,3.49,11.753,2.5,19.863s-3.138,32.345,2.458,43.739l1.893,1.628
			c0,0-2.425-9.043-1.893-18.267c0,0,1.085,9.224,1.893,13.384c0,0-1.532-7.777,0-16.639c1.532-8.862,6.234-25.501,3.34-36.895
			C258.583,143.668,251.285,148.249,251.285,148.249z"/>
		<path style="fill:#263238;" d="M302.361,145.946c0,0,11.949,28.078,8.567,46.479c-3.382,18.4-14.746,15.436-14.746,15.436
			s8.462,1.709,11.899-10.94c3.437-12.649-4.666-35.644-4.666-35.644L302.361,145.946z"/>
		<path style="fill:#263238;" d="M281.552,168.112c0,0-2.897,6.663-7.508,8.472c-4.61,1.809-7.168,1.063-9.21-4.236
			C262.794,167.049,281.552,168.112,281.552,168.112z"/>
		<g>
			<path style="fill:#FFFFFF;stroke:#263238;stroke-linecap:round;stroke-linejoin:round;stroke-miterlimit:10;" d="
				M285.169,164.768c0,0-0.844,3.344-4.823,6.149c-10.918,7.696-16.338,6.933-24.476-8.621c-2.49-4.759-1.047-9.278-2.621-13.043
				c-4.16-9.947-1.213-20.975,4.189-26.807c13.256-14.312,35.313-6.532,38.583,8.681c2.08,9.676-2.153,15.458-5.742,22.729"/>
			<path style="fill:none;stroke:#263238;stroke-linecap:round;stroke-linejoin:round;stroke-miterlimit:10;" d="M263.653,141.859
				c0,0,5.036-2.749,9.752,1.248"/>
			<path style="fill:none;stroke:#263238;stroke-linecap:round;stroke-linejoin:round;stroke-miterlimit:10;" d="M258.583,143.668
				c1.447,3.708,0.852,9.423-1.176,11.304c-2.911,2.701,0.271,4.793,2.622,4.793"/>
			<path style="fill:#263238;" d="M270.7,148.167c0.087,1.262-0.379,2.322-1.041,2.368c-0.662,0.046-1.27-0.94-1.357-2.202
				c-0.087-1.262,0.379-2.323,1.041-2.368C270.005,145.918,270.612,146.904,270.7,148.167z"/>
			<path style="fill:#263238;" d="M257.214,148.167c0.087,1.262-0.379,2.322-1.041,2.368c-0.662,0.046-1.27-0.94-1.357-2.202
				c-0.087-1.262,0.379-2.323,1.041-2.368C256.52,145.918,257.127,146.904,257.214,148.167z"/>
			<path style="fill:none;stroke:#263238;stroke-linecap:round;stroke-linejoin:round;stroke-miterlimit:10;" d="M251.556,143.107
				c0,0,0.625-2.549,4.459-1.085"/>
			<path style="fill:none;stroke:#263238;stroke-linecap:round;stroke-linejoin:round;stroke-miterlimit:10;" d="M261.477,163.653
				c2.17-0.723,4.431,2.984,2.803,4.25c-1.628,1.266-2.08-3.617-2.08-3.617"/>
			<path style="fill:#263238;" d="M275.857,130.163c4.636,3.468-2.452,10.128,5.815,18.086l1.688,3.198c0,0-0.611-6.549,3.854-5.657
				c4.465,0.892,3.064,15.24,3.064,15.24l4.54-6.511c0,0,14.41-27.763-4.54-37.137c-22.914-11.334-31.885,2.045-31.885,2.045
				c-10.249,5.908-11.06,17.298-6.399,25.983c0,0-1.154-7.179,1.79-12.956C256.243,127.631,267.045,123.572,275.857,130.163z"/>
			<path style="fill:#FFFFFF;stroke:#263238;stroke-linecap:round;stroke-linejoin:round;stroke-miterlimit:10;" d="
				M285.772,147.285c0,0,3.135-3.979,6.39-3.617c3.256,0.362,3.014,6.21,1.929,8.048c-1.085,1.839-3.858,7.385-5.667,7.506
				c-1.809,0.121-2.894-0.12-2.653-1.206"/>
			<path style="fill:#263238;" d="M278.056,129.078c0,0-2.894,7.923-1.085,14.029c0,0-4.702-2.575-5.064-5.469
				c0,0-0.314,0.216,0,2.411l-2.406-1.447c0,0-1.935-0.025-2.658-1.459c-0.723-1.434-0.603-8.789-0.603-8.789
				s-2.014,7.228-6.819,10.096c0,0,4.233-4.154,4.233-7.202c0,0-3.032,4.823-7.638,7.355c0,0-2.683-0.46-4.73,2.965
				c0,0-4.769-9.838,2.5-15.384C261.055,120.638,278.056,129.078,278.056,129.078z"/>
		</g>
		<path style="fill:none;stroke:#263238;stroke-linecap:round;stroke-linejoin:round;stroke-miterlimit:10;" d="M286.667,162.409
			c0,0-0.895,12.825-6.682,20.421"/>
		<path style="fill:none;stroke:#263238;stroke-linecap:round;stroke-linejoin:round;stroke-miterlimit:10;" d="M262.399,180.35
			c0,0,8.035,3.664,9.96,4.29c1.925,0.627,2.746,2.677,2.746,2.677"/>
		<path style="fill:none;stroke:#263238;stroke-linecap:round;stroke-linejoin:round;stroke-miterlimit:10;" d="M294.819,180.805
			c0,0-6.866,3.135-8.915,3.376c-2.05,0.241-3.014,3.135-3.014,3.135"/>
		<path style="fill:none;stroke:#263238;stroke-linecap:round;stroke-linejoin:round;stroke-miterlimit:10;" d="M269.5,175.687
			c0,0,5.424,4.514,6.507,7.649"/>
		<g>
			<g>
				<defs>
					<path id="XMLID_405_" d="M243.97,180.87c-1.19,10.5-6.53,16.87-8.7,16.88c-1.42,0-1.39-5.14-1.39-5.14
						c-4.8,0.9-14.68,4.34-21.46,6.82l-0.6,0.22c-2.15,0.79-3.95,1.47-5.1,1.91c-0.36,0.13-0.65,0.24-0.88,0.33l-0.52,0.2
						c1.51,2,2.97,4.01,4.39,6.05c5.24,7.5,10.03,15.25,15.69,23.2c4.66,6.55,2.97,9.9,0,13.01c0,0-8.11,7.7-10.48,7.14
						c-2.38-0.56-8.91-2.73-8.71-4.31c0.2-1.59,2.77-0.6,2.77-0.6s0-0.89,0.4-2.23c0.39-1.33,5.45-2.01,5.45-2.01
						c0.61-2.3,2.45-4.28,2.45-4.28s-15.58-16.21-23.17-21.55c-5.59-3.94-15.51-16.77-11.76-20.3c6.95-6.52,48.17-28.21,59.35-28.1
						C241.7,168.11,245.16,170.37,243.97,180.87z"/>
				</defs>
				<use xlink:href="#XMLID_405_"  style="overflow:visible;fill:#FFFFFF;"/>
				<clipPath id="XMLID_00000128481438430675411390000003939691718076146052_">
					<use xlink:href="#XMLID_405_"  style="overflow:visible;"/>
				</clipPath>
				<path style="opacity:0.4;clip-path:url(#XMLID_00000128481438430675411390000003939691718076146052_);fill:#92E3A9;" d="
					M209.71,208.14c-6.39-0.16-11.15-3.01-11.15-3.01c3.36,0.23,6.76-3.04,6.76-3.04C206.83,204.09,208.29,206.1,209.71,208.14z"/>
				
					<use xlink:href="#XMLID_405_"  style="overflow:visible;fill:none;stroke:#263238;stroke-linecap:round;stroke-linejoin:round;stroke-miterlimit:10;"/>
			</g>
			<path style="fill:none;stroke:#263238;stroke-linecap:round;stroke-linejoin:round;stroke-miterlimit:10;" d="M208.981,246.582
				c0,0,2.901,0.923,4.22,0.791"/>
			<path style="fill:none;stroke:#263238;stroke-linecap:round;stroke-linejoin:round;stroke-miterlimit:10;" d="M212.895,242.698
				c0,0,0.617,0.616,0,1.657c-0.617,1.041-1.222,1.173-1.222,1.173"/>
			<path style="fill:none;stroke:#263238;stroke-linecap:round;stroke-linejoin:round;stroke-miterlimit:10;" d="M205.321,202.086
				c0,0-4.451,4.045-8.901,3.039"/>
			<path style="fill:none;stroke:#263238;stroke-linecap:round;stroke-linejoin:round;stroke-miterlimit:10;" d="M233.882,192.612
				c0,0,1.368-0.338,2.571,1.682"/>
		</g>
		<path style="fill:none;stroke:#263238;stroke-linecap:round;stroke-linejoin:round;stroke-miterlimit:10;" d="M278.112,232.332
			c0,0-22.088,7.454-27.637,1.21"/>
		<path style="fill:none;stroke:#263238;stroke-linecap:round;stroke-linejoin:round;stroke-miterlimit:10;" d="M235.266,197.747
			c0,0,3.509,3.104,9.452-3.454"/>
		<path style="fill:none;stroke:#263238;stroke-linecap:round;stroke-linejoin:round;stroke-miterlimit:10;" d="M239.992,206.131
			c0,0,6.585,19.385,21.484,24.528"/>
		<path style="fill:none;stroke:#263238;stroke-linecap:round;stroke-linejoin:round;stroke-miterlimit:10;" d="M298.728,175.687
			c0,0-9.024,27.838-25.974,29.438"/>
		<g>
			<path style="fill:#FFFFFF;stroke:#263238;stroke-linecap:round;stroke-linejoin:round;stroke-miterlimit:10;" d="
				M309.156,219.484c-5.454-6.843-26.204-23.206-26.204-23.206l-10.958-21.215c0,0-4.05-3.982-5.151-4.16
				c-0.83-0.134-3.59,2.027-3.918,3.837c-0.182,1.003,0.98,4.946,0.98,4.946c2.166-0.605,1.793-3.262,1.793-3.262l1.307-1.056
				l1.498,2.225c0,0-4.49,3.915-4.71,5.306c-0.141,0.891,0.922,2.39,0.922,2.39s-1.946,3.059-0.759,4.952
				c1.92,3.062,5.029,4.054,5.029,4.054c4.073,7.227,9.877,9.189,9.877,9.189s23.037,39.621,33.776,35.583"/>
			<path style="fill:none;stroke:#263238;stroke-linecap:round;stroke-linejoin:round;stroke-miterlimit:10;" d="M268.986,194.294
				c0,0-1.299-3.08-1.141-4.536"/>
			<path style="fill:none;stroke:#263238;stroke-linecap:round;stroke-linejoin:round;stroke-miterlimit:10;" d="M267.912,190.832
				c0,0-1.85-0.091-2.26-0.691"/>
			<path style="fill:none;stroke:#263238;stroke-linecap:round;stroke-linejoin:round;stroke-miterlimit:10;" d="M264.716,185.288
				c0,0,2.506-2.331,3.552-2.772"/>
		</g>
		<g style="opacity:0.2;">
			<path style="fill:none;stroke:#FFFFFF;stroke-linecap:round;stroke-linejoin:round;stroke-miterlimit:10;" d="M276.402,117.593
				c0,0-4.883,3.997-3.648,16.109"/>
			<path style="fill:none;stroke:#FFFFFF;stroke-linecap:round;stroke-linejoin:round;stroke-miterlimit:10;" d="M271.747,116.344
				c0,0-6.037,3.38-9.348,9.304c-3.311,5.924-8.614,8.054-8.614,8.054"/>
			<path style="fill:none;stroke:#FFFFFF;stroke-linecap:round;stroke-linejoin:round;stroke-miterlimit:10;" d="M262.906,117.593
				c0,0-7.473,6.844-10.148,7.43"/>
			<path style="fill:none;stroke:#FFFFFF;stroke-linecap:round;stroke-linejoin:round;stroke-miterlimit:10;" d="M282.89,121.308
				c0,0-0.857,14.227,4.418,19.63"/>
			<path style="fill:none;stroke:#FFFFFF;stroke-linecap:round;stroke-linejoin:round;stroke-miterlimit:10;" d="M290.279,124.297
				c0,0,0.835,11.985,6.521,17.726c5.686,5.741,11.738,26.076,12.134,33.065"/>
			<path style="fill:none;stroke:#FFFFFF;stroke-linecap:round;stroke-linejoin:round;stroke-miterlimit:10;" d="M296.182,153.198
				c0,0,2.334,7.475,1.411,12.638"/>
			<path style="fill:none;stroke:#FFFFFF;stroke-linecap:round;stroke-linejoin:round;stroke-miterlimit:10;" d="M256.243,166.385
				c0,0-1.111,13.938-1.639,18.903c-0.528,4.965,0,10.504,0,10.504"/>
		</g>
	</g>
</g>
<g id="Choice_1">
	<g>
		<g>
			<defs>
				<rect id="XMLID_402_" x="112.22" y="251.56" width="21.56" height="206.44"/>
			</defs>
			<use xlink:href="#XMLID_402_"  style="overflow:visible;fill:#999999;"/>
			<clipPath id="XMLID_00000121272796981337557360000001792237658886263717_">
				<use xlink:href="#XMLID_402_"  style="overflow:visible;"/>
			</clipPath>
			<path style="opacity:0.3;clip-path:url(#XMLID_00000121272796981337557360000001792237658886263717_);fill-opacity:0.7;" d="
				M133.78,251.56v35.13c-9.71-4.26-16.71-9.26-21.56-13.63v-21.5H133.78z"/>
			
				<use xlink:href="#XMLID_402_"  style="overflow:visible;fill:none;stroke:#263238;stroke-linecap:round;stroke-linejoin:round;stroke-miterlimit:10;"/>
		</g>
		<path style="fill:#999999;stroke:#263238;stroke-linecap:round;stroke-linejoin:round;stroke-miterlimit:10;" d="M74.341,237.368
			v13c0,2.111,21.785,3.822,48.659,3.822s48.659-1.711,48.659-3.822v-13H74.341z"/>
		<path style="fill:#BFBFBF;stroke:#263238;stroke-miterlimit:10;" d="M171.659,237.368c0,2.111-21.786,3.822-48.659,3.822
			s-48.659-1.711-48.659-3.822c0-2.111,21.785-3.822,48.659-3.822S171.659,235.257,171.659,237.368z"/>
		<g>
			<polygon style="fill:#92E3A9;stroke:#263238;stroke-linecap:round;stroke-linejoin:round;stroke-miterlimit:10;" points="
				151.879,237.744 112.547,240.744 94.121,237.744 94.121,189.519 130.088,187.519 151.879,190.519 			"/>
			<g>
				
					<ellipse transform="matrix(0.6012 -0.7991 0.7991 0.6012 -119.6113 191.8924)" style="fill:#263238;" cx="132.46" cy="215.79" rx="11.925" ry="11.154"/>
				<g>
					<path style="fill:#FFFFFF;" d="M136.145,222.074l-2.124,0.139l-0.363-2.447l-2.584,0.169l-0.364,2.495l-1.933,0.126
						l2.144-13.758l3.081-0.202L136.145,222.074z M131.342,218.069l2.029-0.132l-0.996-6.822l-0.039,0.003L131.342,218.069z"/>
				</g>
			</g>
			<polyline style="fill:none;stroke:#263238;stroke-linecap:round;stroke-linejoin:round;stroke-miterlimit:10;" points="
				112.547,240.744 112.547,193.447 144.986,191.483 			"/>
			
				<line style="fill:none;stroke:#263238;stroke-linecap:round;stroke-linejoin:round;stroke-miterlimit:10;" x1="112.547" y1="193.447" x2="94.121" y2="189.519"/>
		</g>
		<g>
			
				<line style="fill:none;stroke:#263238;stroke-linecap:round;stroke-linejoin:round;stroke-miterlimit:10;" x1="88.564" y1="203.686" x2="67.598" y2="203.408"/>
			
				<line style="fill:none;stroke:#263238;stroke-linecap:round;stroke-linejoin:round;stroke-miterlimit:10;" x1="90.938" y1="185.288" x2="76.696" y2="175.687"/>
			
				<line style="fill:none;stroke:#263238;stroke-linecap:round;stroke-linejoin:round;stroke-miterlimit:10;" x1="117.444" y1="177.471" x2="117.444" y2="157.418"/>
			
				<line style="fill:none;stroke:#263238;stroke-linecap:round;stroke-linejoin:round;stroke-miterlimit:10;" x1="142.762" y1="177.471" x2="149.092" y2="165.836"/>
			
				<line style="fill:none;stroke:#263238;stroke-linecap:round;stroke-linejoin:round;stroke-miterlimit:10;" x1="159.773" y1="196.388" x2="172.402" y2="193.917"/>
			
				<line style="fill:none;stroke:#263238;stroke-linecap:round;stroke-linejoin:round;stroke-miterlimit:10;" x1="159.773" y1="215.79" x2="172.402" y2="219.923"/>
			
				<line style="fill:none;stroke:#263238;stroke-linecap:round;stroke-linejoin:round;stroke-miterlimit:10;" x1="86.587" y1="219.923" x2="76.696" y2="223.879"/>
		</g>
	</g>
</g>
<g id="Choice_2">
	<g>
		<g>
			<defs>
				<rect id="XMLID_403_" x="366.22" y="251.56" width="21.56" height="206.44"/>
			</defs>
			<use xlink:href="#XMLID_403_"  style="overflow:visible;fill:#999999;"/>
			<clipPath id="XMLID_00000077322638068566315590000009708725730990659983_">
				<use xlink:href="#XMLID_403_"  style="overflow:visible;"/>
			</clipPath>
			<path style="opacity:0.3;clip-path:url(#XMLID_00000077322638068566315590000009708725730990659983_);fill-opacity:0.7;" d="
				M387.78,251.56v35.13c-9.71-4.26-16.71-9.26-21.56-13.63v-21.5H387.78z"/>
			
				<use xlink:href="#XMLID_403_"  style="overflow:visible;fill:none;stroke:#263238;stroke-linecap:round;stroke-linejoin:round;stroke-miterlimit:10;"/>
		</g>
		<path style="fill:#999999;stroke:#263238;stroke-linecap:round;stroke-linejoin:round;stroke-miterlimit:10;" d="M328.341,237.368
			v13c0,2.111,21.785,3.822,48.659,3.822c26.874,0,48.659-1.711,48.659-3.822v-13H328.341z"/>
		<path style="fill:#BFBFBF;stroke:#263238;stroke-miterlimit:10;" d="M425.659,237.368c0,2.111-21.786,3.822-48.659,3.822
			c-26.874,0-48.659-1.711-48.659-3.822c0-2.111,21.785-3.822,48.659-3.822C403.874,233.546,425.659,235.257,425.659,237.368z"/>
		<g>
			<polygon style="fill:#92E3A9;stroke:#263238;stroke-linecap:round;stroke-linejoin:round;stroke-miterlimit:10;" points="
				348.121,237.744 387.453,240.744 405.879,237.744 405.879,189.519 369.912,187.519 348.121,190.519 			"/>
			<g>
				<path style="fill:#263238;" d="M378.826,216.765c0,6.422-5.094,11.191-11.379,10.653c-6.284-0.538-11.379-6.18-11.379-12.602
					s5.095-11.191,11.379-10.653C373.732,204.701,378.826,210.343,378.826,216.765z"/>
				<g>
					<path style="fill:#FFFFFF;" d="M370.607,212.1v0.486c0,1.401-0.419,2.24-1.352,2.608v0.039c1.123,0.544,1.56,1.593,1.56,3.032
						v1.109c0,2.101-1.085,3.136-3.179,2.957l-3.293-0.282v-13.619l3.16,0.271C369.675,208.887,370.607,209.999,370.607,212.1z
						 M366.438,210.556v3.599l0.819,0.07c0.78,0.067,1.256-0.242,1.256-1.332v-0.759c0-0.973-0.324-1.428-1.066-1.492
						L366.438,210.556z M366.438,216.1v4.184l1.199,0.102c0.705,0.061,1.085-0.238,1.085-1.25v-1.186c0-1.265-0.4-1.688-1.352-1.77
						L366.438,216.1z"/>
				</g>
			</g>
			<polyline style="fill:none;stroke:#263238;stroke-linecap:round;stroke-linejoin:round;stroke-miterlimit:10;" points="
				387.453,240.744 387.453,193.447 355.074,191.483 			"/>
			
				<line style="fill:none;stroke:#263238;stroke-linecap:round;stroke-linejoin:round;stroke-miterlimit:10;" x1="387.453" y1="193.447" x2="405.879" y2="189.519"/>
		</g>
		<g>
			
				<line style="fill:none;stroke:#263238;stroke-linecap:round;stroke-linejoin:round;stroke-miterlimit:10;" x1="411.435" y1="203.686" x2="432.402" y2="203.408"/>
			
				<line style="fill:none;stroke:#263238;stroke-linecap:round;stroke-linejoin:round;stroke-miterlimit:10;" x1="409.062" y1="185.288" x2="423.304" y2="175.687"/>
			
				<line style="fill:none;stroke:#263238;stroke-linecap:round;stroke-linejoin:round;stroke-miterlimit:10;" x1="382.556" y1="177.471" x2="382.556" y2="157.418"/>
			
				<line style="fill:none;stroke:#263238;stroke-linecap:round;stroke-linejoin:round;stroke-miterlimit:10;" x1="357.238" y1="177.471" x2="350.908" y2="165.836"/>
			
				<line style="fill:none;stroke:#263238;stroke-linecap:round;stroke-linejoin:round;stroke-miterlimit:10;" x1="340.227" y1="196.388" x2="327.598" y2="193.917"/>
			
				<line style="fill:none;stroke:#263238;stroke-linecap:round;stroke-linejoin:round;stroke-miterlimit:10;" x1="340.227" y1="215.79" x2="327.598" y2="219.923"/>
			
				<line style="fill:none;stroke:#263238;stroke-linecap:round;stroke-linejoin:round;stroke-miterlimit:10;" x1="413.413" y1="219.923" x2="423.304" y2="223.879"/>
		</g>
	</g>
</g>
</svg>
